<svg width="16" height="16" viewBox="0 0 16 16" fill="none" xmlns="http://www.w3.org/2000/svg">
<path fill-rule="evenodd" clip-rule="evenodd" d="M10.4428 12.4237L11.4264 13.4073C11.4916 13.4725 11.5801 13.5092 11.6723 13.5092C11.7646 13.5092 11.853 13.4725 11.9182 13.4073L13.8855 11.44C13.9489 11.3744 13.984 11.2865 13.9832 11.1953C13.9824 11.1041 13.9458 11.0169 13.8813 10.9524C13.8168 10.8879 13.7296 10.8513 13.6384 10.8506C13.5472 10.8498 13.4593 10.8848 13.3937 10.9482L11.6723 12.6696L10.9346 11.9318C10.869 11.8685 10.7811 11.8334 10.6899 11.8342C10.5987 11.835 10.5115 11.8716 10.447 11.9361C10.3825 12.0006 10.3459 12.0878 10.3451 12.179C10.3443 12.2702 10.3794 12.3581 10.4428 12.4237ZM4.17387 6.33044C4.17387 6.12765 4.09318 5.93287 3.94987 5.78922C3.80621 5.64589 3.61159 5.56534 3.40866 5.56522H2.85213C2.64935 5.56522 2.45457 5.64591 2.31091 5.78922C2.16759 5.93288 2.08704 6.1275 2.08691 6.33044V6.88696C2.08691 7.08974 2.16761 7.28452 2.31091 7.42818C2.45457 7.57148 2.64935 7.65218 2.85213 7.65218H3.40866C3.61144 7.65218 3.80622 7.57148 3.94987 7.42818C4.09318 7.28452 4.17387 7.08974 4.17387 6.88696V6.33044ZM3.47822 6.33044V6.88696C3.47824 6.89609 3.47643 6.90513 3.47291 6.91355C3.46939 6.92197 3.46421 6.92961 3.4577 6.936C3.4513 6.94252 3.44367 6.94769 3.43525 6.95121C3.42683 6.95474 3.41779 6.95654 3.40866 6.95652H2.85213C2.843 6.95654 2.83396 6.95474 2.82554 6.95121C2.81712 6.94769 2.80948 6.94252 2.80309 6.936C2.79657 6.92961 2.7914 6.92197 2.78788 6.91355C2.78435 6.90513 2.78255 6.89609 2.78257 6.88696V6.33044C2.78257 6.312 2.78987 6.29426 2.80309 6.28139C2.80948 6.27488 2.81712 6.2697 2.82554 6.26618C2.83396 6.26266 2.843 6.26085 2.85213 6.26087H3.40866C3.42709 6.26087 3.44483 6.26817 3.4577 6.28139C3.46421 6.28779 3.46939 6.29542 3.47291 6.30384C3.47643 6.31226 3.47824 6.32131 3.47822 6.33044ZM4.17387 9.11305C4.17387 8.91027 4.09318 8.71548 3.94987 8.57183C3.80621 8.4285 3.61159 8.34795 3.40866 8.34783H2.85213C2.64935 8.34783 2.45457 8.42853 2.31091 8.57183C2.16759 8.7155 2.08704 8.91011 2.08691 9.11305V9.66957C2.08691 9.87235 2.16761 10.0671 2.31091 10.2108C2.45457 10.3541 2.64935 10.4348 2.85213 10.4348H3.40866C3.61144 10.4348 3.80622 10.3541 3.94987 10.2108C4.09318 10.0671 4.17387 9.87235 4.17387 9.66957V9.11305ZM3.47822 9.11305V9.66957C3.47824 9.6787 3.47643 9.68774 3.47291 9.69616C3.46939 9.70459 3.46421 9.71222 3.4577 9.71862C3.4513 9.72513 3.44367 9.7303 3.43525 9.73383C3.42683 9.73735 3.41779 9.73916 3.40866 9.73914H2.85213C2.843 9.73916 2.83396 9.73735 2.82554 9.73383C2.81712 9.7303 2.80948 9.72513 2.80309 9.71862C2.79657 9.71222 2.7914 9.70459 2.78788 9.69616C2.78435 9.68774 2.78255 9.6787 2.78257 9.66957V9.11305C2.78257 9.09461 2.78987 9.07687 2.80309 9.06401C2.80948 9.05749 2.81712 9.05232 2.82554 9.04879C2.83396 9.04527 2.843 9.04346 2.85213 9.04348H3.40866C3.42709 9.04348 3.44483 9.05079 3.4577 9.06401C3.46421 9.0704 3.46939 9.07803 3.47291 9.08646C3.47643 9.09488 3.47824 9.10392 3.47822 9.11305ZM4.17387 11.8957C4.17387 11.6929 4.09318 11.4981 3.94987 11.3544C3.80621 11.2111 3.61159 11.1306 3.40866 11.1304H2.85213C2.64935 11.1304 2.45457 11.2111 2.31091 11.3544C2.16759 11.4981 2.08704 11.6927 2.08691 11.8957V12.4522C2.08691 12.655 2.16761 12.8498 2.31091 12.9934C2.45457 13.1367 2.64935 13.2174 2.85213 13.2174H3.40866C3.61144 13.2174 3.80622 13.1367 3.94987 12.9934C4.09318 12.8498 4.17387 12.655 4.17387 12.4522V11.8957ZM3.47822 11.8957V12.4522C3.47824 12.4613 3.47643 12.4704 3.47291 12.4788C3.46939 12.4872 3.46421 12.4948 3.4577 12.5012C3.4513 12.5077 3.44367 12.5129 3.43525 12.5164C3.42683 12.52 3.41779 12.5218 3.40866 12.5218H2.85213C2.843 12.5218 2.83396 12.52 2.82554 12.5164C2.81712 12.5129 2.80948 12.5077 2.80309 12.5012C2.79657 12.4948 2.7914 12.4872 2.78788 12.4788C2.78435 12.4704 2.78255 12.4613 2.78257 12.4522V11.8957C2.78257 11.8772 2.78987 11.8595 2.80309 11.8466C2.80948 11.8401 2.81712 11.8349 2.82554 11.8314C2.83396 11.8279 2.843 11.8261 2.85213 11.8261H3.40866C3.42709 11.8261 3.44483 11.8334 3.4577 11.8466C3.46421 11.853 3.46939 11.8606 3.47291 11.8691C3.47643 11.8775 3.47824 11.8865 3.47822 11.8957ZM6.95649 6.33044C6.95649 6.12765 6.87579 5.93287 6.73249 5.78922C6.58882 5.64589 6.39421 5.56534 6.19127 5.56522H5.63475C5.43196 5.56522 5.23718 5.64591 5.09353 5.78922C4.9502 5.93288 4.86965 6.1275 4.86953 6.33044V6.88696C4.86953 7.08974 4.95022 7.28452 5.09353 7.42818C5.23718 7.57148 5.43196 7.65218 5.63475 7.65218H6.19127C6.39405 7.65218 6.58884 7.57148 6.73249 7.42818C6.87579 7.28452 6.95649 7.08974 6.95649 6.88696V6.33044ZM6.26084 6.33044V6.88696C6.26085 6.89609 6.25905 6.90513 6.25552 6.91355C6.252 6.92197 6.24683 6.92961 6.24031 6.936C6.23392 6.94252 6.22628 6.94769 6.21786 6.95121C6.20944 6.95474 6.2004 6.95654 6.19127 6.95652H5.63475C5.62562 6.95654 5.61658 6.95474 5.60815 6.95121C5.59973 6.94769 5.5921 6.94252 5.5857 6.936C5.57919 6.92961 5.57402 6.92197 5.57049 6.91355C5.56697 6.90513 5.56516 6.89609 5.56518 6.88696V6.33044C5.56518 6.312 5.57249 6.29426 5.5857 6.28139C5.5921 6.27488 5.59973 6.2697 5.60815 6.26618C5.61658 6.26266 5.62562 6.26085 5.63475 6.26087H6.19127C6.2097 6.26087 6.22744 6.26817 6.24031 6.28139C6.24683 6.28779 6.252 6.29542 6.25552 6.30384C6.25905 6.31226 6.26085 6.32131 6.26084 6.33044ZM6.95649 9.11305C6.95649 8.91027 6.87579 8.71548 6.73249 8.57183C6.58882 8.4285 6.39421 8.34795 6.19127 8.34783H5.63475C5.43196 8.34783 5.23718 8.42853 5.09353 8.57183C4.9502 8.7155 4.86965 8.91011 4.86953 9.11305V9.66957C4.86953 9.87235 4.95022 10.0671 5.09353 10.2108C5.23718 10.3541 5.43196 10.4348 5.63475 10.4348H6.19127C6.39405 10.4348 6.58884 10.3541 6.73249 10.2108C6.87579 10.0671 6.95649 9.87235 6.95649 9.66957V9.11305ZM6.26084 9.11305V9.66957C6.26085 9.6787 6.25905 9.68774 6.25552 9.69616C6.252 9.70459 6.24683 9.71222 6.24031 9.71862C6.23392 9.72513 6.22628 9.7303 6.21786 9.73383C6.20944 9.73735 6.2004 9.73916 6.19127 9.73914H5.63475C5.62562 9.73916 5.61658 9.73735 5.60815 9.73383C5.59973 9.7303 5.5921 9.72513 5.5857 9.71862C5.57919 9.71222 5.57402 9.70459 5.57049 9.69616C5.56697 9.68774 5.56516 9.6787 5.56518 9.66957V9.11305C5.56518 9.09461 5.57249 9.07687 5.5857 9.06401C5.5921 9.05749 5.59973 9.05232 5.60815 9.04879C5.61658 9.04527 5.62562 9.04346 5.63475 9.04348H6.19127C6.2097 9.04348 6.22744 9.05079 6.24031 9.06401C6.24683 9.0704 6.252 9.07803 6.25552 9.08646C6.25905 9.09488 6.26085 9.10392 6.26084 9.11305ZM6.95649 11.8957C6.95649 11.6929 6.87579 11.4981 6.73249 11.3544C6.58882 11.2111 6.39421 11.1306 6.19127 11.1304H5.63475C5.43196 11.1304 5.23718 11.2111 5.09353 11.3544C4.9502 11.4981 4.86965 11.6927 4.86953 11.8957V12.4522C4.86953 12.655 4.95022 12.8498 5.09353 12.9934C5.23718 13.1367 5.43196 13.2174 5.63475 13.2174H6.19127C6.39405 13.2174 6.58884 13.1367 6.73249 12.9934C6.87579 12.8498 6.95649 12.655 6.95649 12.4522V11.8957ZM6.26084 11.8957V12.4522C6.26085 12.4613 6.25905 12.4704 6.25552 12.4788C6.252 12.4872 6.24683 12.4948 6.24031 12.5012C6.23392 12.5077 6.22628 12.5129 6.21786 12.5164C6.20944 12.52 6.2004 12.5218 6.19127 12.5218H5.63475C5.62562 12.5218 5.61658 12.52 5.60815 12.5164C5.59973 12.5129 5.5921 12.5077 5.5857 12.5012C5.57919 12.4948 5.57402 12.4872 5.57049 12.4788C5.56697 12.4704 5.56516 12.4613 5.56518 12.4522V11.8957C5.56518 11.8772 5.57249 11.8595 5.5857 11.8466C5.5921 11.8401 5.59973 11.8349 5.60815 11.8314C5.61658 11.8279 5.62562 11.8261 5.63475 11.8261H6.19127C6.2097 11.8261 6.22744 11.8334 6.24031 11.8466C6.24683 11.853 6.252 11.8606 6.25552 11.8691C6.25905 11.8775 6.26085 11.8865 6.26084 11.8957ZM9.7391 6.33044C9.7391 6.12765 9.65841 5.93287 9.5151 5.78922C9.37144 5.64589 9.17682 5.56534 8.97388 5.56522H8.41736C8.21458 5.56522 8.01979 5.64591 7.87614 5.78922C7.73281 5.93288 7.65227 6.1275 7.65214 6.33044V6.88696C7.65214 7.08974 7.73284 7.28452 7.87614 7.42818C8.01979 7.57148 8.21458 7.65218 8.41736 7.65218H8.97388C9.17667 7.65218 9.37145 7.57148 9.5151 7.42818C9.65841 7.28452 9.7391 7.08974 9.7391 6.88696V6.33044ZM9.04345 6.33044V6.88696C9.04347 6.89609 9.04166 6.90513 9.03814 6.91355C9.03461 6.92197 9.02944 6.92961 9.02293 6.936C9.01653 6.94252 9.0089 6.94769 9.00048 6.95121C8.99205 6.95474 8.98301 6.95654 8.97388 6.95652H8.41736C8.40823 6.95654 8.39919 6.95474 8.39077 6.95121C8.38235 6.94769 8.37471 6.94252 8.36832 6.936C8.3618 6.92961 8.35663 6.92197 8.35311 6.91355C8.34958 6.90513 8.34778 6.89609 8.3478 6.88696V6.33044C8.3478 6.312 8.3551 6.29426 8.36832 6.28139C8.37471 6.27488 8.38235 6.2697 8.39077 6.26618C8.39919 6.26266 8.40823 6.26085 8.41736 6.26087H8.97388C8.99232 6.26087 9.01006 6.26817 9.02293 6.28139C9.02944 6.28779 9.03461 6.29542 9.03814 6.30384C9.04166 6.31226 9.04347 6.32131 9.04345 6.33044ZM12.5217 6.33044C12.5217 6.12765 12.441 5.93287 12.2977 5.78922C12.154 5.64589 11.9594 5.56534 11.7565 5.56522H11.2C10.9972 5.56522 10.8024 5.64591 10.6588 5.78922C10.5154 5.93288 10.4349 6.1275 10.4348 6.33044V6.88696C10.4348 7.08974 10.5155 7.28452 10.6588 7.42818C10.8024 7.57148 10.9972 7.65218 11.2 7.65218H11.7565C11.9593 7.65218 12.1541 7.57148 12.2977 7.42818C12.441 7.28452 12.5217 7.08974 12.5217 6.88696V6.33044ZM11.8261 6.33044V6.88696C11.8261 6.89609 11.8243 6.90513 11.8208 6.91355C11.8172 6.92197 11.8121 6.92961 11.8055 6.936C11.7991 6.94252 11.7915 6.94769 11.7831 6.95121C11.7747 6.95474 11.7656 6.95654 11.7565 6.95652H11.2C11.1908 6.95654 11.1818 6.95474 11.1734 6.95121C11.165 6.94769 11.1573 6.94252 11.1509 6.936C11.1444 6.92961 11.1392 6.92197 11.1357 6.91355C11.1322 6.90513 11.1304 6.89609 11.1304 6.88696V6.33044C11.1304 6.312 11.1377 6.29426 11.1509 6.28139C11.1573 6.27488 11.165 6.2697 11.1734 6.26618C11.1818 6.26266 11.1908 6.26085 11.2 6.26087H11.7565C11.7749 6.26087 11.7927 6.26817 11.8055 6.28139C11.8121 6.28779 11.8172 6.29542 11.8208 6.30384C11.8243 6.31226 11.8261 6.32131 11.8261 6.33044Z" fill="#8D8585"/>
<path fill-rule="evenodd" clip-rule="evenodd" d="M9.22332 14.6087H1.73913C1.27788 14.6087 0.835522 14.4255 0.509218 14.0995C0.183217 13.7732 6.67319e-05 13.3308 0 12.8696V3.13044C0 2.66919 0.18323 2.22684 0.50938 1.90069C0.835531 1.57454 1.27789 1.39131 1.73913 1.39131H2.78261V1.04348C2.78261 0.766732 2.89255 0.501319 3.08824 0.305628C3.28393 0.109938 3.54935 0 3.82609 0C4.10284 0 4.36826 0.109938 4.56395 0.305628C4.75964 0.501319 4.86957 0.766732 4.86957 1.04348V1.39131H9.73915V1.04348C9.73915 0.766732 9.84909 0.501319 10.0448 0.305628C10.2405 0.109938 10.5059 0 10.7826 0C11.0594 0 11.3248 0.109938 11.5205 0.305628C11.7162 0.501319 11.8261 0.766732 11.8261 1.04348V1.39131H12.8696C13.3308 1.39131 13.7732 1.57454 14.0993 1.90069C14.4255 2.22684 14.6087 2.66919 14.6087 3.13044V9.22332C15.4585 9.92558 16 10.9868 16 12.1739C16 14.2856 14.2856 16 12.1739 16C11.6099 16.0004 11.0528 15.8759 10.5426 15.6353C10.0324 15.3947 9.58187 15.0441 9.22332 14.6087ZM12.1739 9.0435C13.9016 9.0435 15.3044 10.4463 15.3044 12.1739C15.3044 13.9016 13.9016 15.3044 12.1739 15.3044C10.4463 15.3044 9.0435 13.9016 9.0435 12.1739C9.0435 10.4463 10.4463 9.0435 12.1739 9.0435ZM13.9131 8.76558V4.86957H0.695653V12.8696C0.695653 13.1465 0.805567 13.4118 1.00139 13.6073C1.09822 13.7043 1.21322 13.7812 1.33981 13.8337C1.46641 13.8861 1.6021 13.9131 1.73913 13.9131H8.76558C8.49845 13.3913 8.34784 12.8 8.34784 12.1739C8.34784 10.0623 10.0623 8.34784 12.1739 8.34784C12.8 8.34784 13.3913 8.49845 13.9131 8.76558ZM11.8261 2.08696V2.43479C11.8261 2.71154 11.7162 2.97695 11.5205 3.17264C11.3248 3.36833 11.0594 3.47827 10.7826 3.47827C10.5059 3.47827 10.2405 3.36833 10.0448 3.17264C9.84909 2.97695 9.73915 2.71154 9.73915 2.43479V2.08696H4.86957V2.43479C4.86957 2.71154 4.75964 2.97695 4.56395 3.17264C4.36826 3.36833 4.10284 3.47827 3.82609 3.47827C3.54935 3.47827 3.28393 3.36833 3.08824 3.17264C2.89255 2.97695 2.78261 2.71154 2.78261 2.43479V2.08696H1.73913C1.46239 2.08696 1.19697 2.1969 1.00128 2.39259C0.805591 2.58828 0.695653 2.85369 0.695653 3.13044V4.17392H13.9131V3.13044C13.9131 2.85369 13.8031 2.58828 13.6074 2.39259C13.4117 2.1969 13.1463 2.08696 12.8696 2.08696H11.8261ZM11.1305 1.04348V2.43479C11.1305 2.52704 11.0938 2.61551 11.0286 2.68074C10.9633 2.74597 10.8749 2.78261 10.7826 2.78261C10.6904 2.78261 10.6019 2.74597 10.5367 2.68074C10.4714 2.61551 10.4348 2.52704 10.4348 2.43479V1.04348C10.4348 0.951231 10.4714 0.86276 10.5367 0.79753C10.6019 0.732299 10.6904 0.695653 10.7826 0.695653C10.8749 0.695653 10.9633 0.732299 11.0286 0.79753C11.0938 0.86276 11.1305 0.951231 11.1305 1.04348ZM4.17392 1.04348V2.43479C4.17392 2.52704 4.13727 2.61551 4.07204 2.68074C4.00681 2.74597 3.91834 2.78261 3.82609 2.78261C3.73384 2.78261 3.64537 2.74597 3.58014 2.68074C3.51491 2.61551 3.47827 2.52704 3.47827 2.43479V1.04348C3.47827 0.951231 3.51491 0.86276 3.58014 0.79753C3.64537 0.732299 3.73384 0.695653 3.82609 0.695653C3.91834 0.695653 4.00681 0.732299 4.07204 0.79753C4.13727 0.86276 4.17392 0.951231 4.17392 1.04348Z" fill="#8D8585"/>
</svg>
