<svg width="14" height="14" viewBox="0 0 14 14" fill="none" xmlns="http://www.w3.org/2000/svg">
<path d="M4.45455 6.36364H1.90909C1.40277 6.36364 0.917184 6.1625 0.55916 5.80448C0.201136 5.44646 0 4.96087 0 4.45455V1.90909C0 1.40277 0.201136 0.917184 0.55916 0.55916C0.917184 0.201136 1.40277 0 1.90909 0H4.45455C4.96087 0 5.44646 0.201136 5.80448 0.55916C6.1625 0.917184 6.36364 1.40277 6.36364 1.90909V4.45455C6.36364 4.96087 6.1625 5.44646 5.80448 5.80448C5.44646 6.1625 4.96087 6.36364 4.45455 6.36364ZM1.90909 1.27273C1.74032 1.27273 1.57846 1.33977 1.45911 1.45911C1.33977 1.57846 1.27273 1.74032 1.27273 1.90909V4.45455C1.27273 4.62332 1.33977 4.78518 1.45911 4.90453C1.57846 5.02387 1.74032 5.09091 1.90909 5.09091H4.45455C4.62332 5.09091 4.78518 5.02387 4.90453 4.90453C5.02387 4.78518 5.09091 4.62332 5.09091 4.45455V1.90909C5.09091 1.74032 5.02387 1.57846 4.90453 1.45911C4.78518 1.33977 4.62332 1.27273 4.45455 1.27273H1.90909ZM12.0909 6.36364H9.54546C9.03914 6.36364 8.55355 6.1625 8.19553 5.80448C7.8375 5.44646 7.63637 4.96087 7.63637 4.45455V1.90909C7.63637 1.40277 7.8375 0.917184 8.19553 0.55916C8.55355 0.201136 9.03914 0 9.54546 0H12.0909C12.5972 0 13.0828 0.201136 13.4408 0.55916C13.7989 0.917184 14 1.40277 14 1.90909V4.45455C14 4.96087 13.7989 5.44646 13.4408 5.80448C13.0828 6.1625 12.5972 6.36364 12.0909 6.36364ZM9.54546 1.27273C9.37669 1.27273 9.21482 1.33977 9.09548 1.45911C8.97614 1.57846 8.9091 1.74032 8.9091 1.90909V4.45455C8.9091 4.62332 8.97614 4.78518 9.09548 4.90453C9.21482 5.02387 9.37669 5.09091 9.54546 5.09091H12.0909C12.2597 5.09091 12.4216 5.02387 12.5409 4.90453C12.6602 4.78518 12.7273 4.62332 12.7273 4.45455V1.90909C12.7273 1.74032 12.6602 1.57846 12.5409 1.45911C12.4216 1.33977 12.2597 1.27273 12.0909 1.27273H9.54546ZM4.45455 14H1.90909C1.40277 14 0.917184 13.7989 0.55916 13.4408C0.201136 13.0828 0 12.5972 0 12.0909V9.54546C0 9.03914 0.201136 8.55355 0.55916 8.19553C0.917184 7.8375 1.40277 7.63637 1.90909 7.63637H4.45455C4.96087 7.63637 5.44646 7.8375 5.80448 8.19553C6.1625 8.55355 6.36364 9.03914 6.36364 9.54546V12.0909C6.36364 12.5972 6.1625 13.0828 5.80448 13.4408C5.44646 13.7989 4.96087 14 4.45455 14ZM1.90909 8.9091C1.74032 8.9091 1.57846 8.97614 1.45911 9.09548C1.33977 9.21482 1.27273 9.37669 1.27273 9.54546V12.0909C1.27273 12.2597 1.33977 12.4216 1.45911 12.5409C1.57846 12.6602 1.74032 12.7273 1.90909 12.7273H4.45455C4.62332 12.7273 4.78518 12.6602 4.90453 12.5409C5.02387 12.4216 5.09091 12.2597 5.09091 12.0909V9.54546C5.09091 9.37669 5.02387 9.21482 4.90453 9.09548C4.78518 8.97614 4.62332 8.9091 4.45455 8.9091H1.90909ZM12.0909 14H9.54546C9.03914 14 8.55355 13.7989 8.19553 13.4408C7.8375 13.0828 7.63637 12.5972 7.63637 12.0909V9.54546C7.63637 9.03914 7.8375 8.55355 8.19553 8.19553C8.55355 7.8375 9.03914 7.63637 9.54546 7.63637H12.0909C12.5972 7.63637 13.0828 7.8375 13.4408 8.19553C13.7989 8.55355 14 9.03914 14 9.54546V12.0909C14 12.5972 13.7989 13.0828 13.4408 13.4408C13.0828 13.7989 12.5972 14 12.0909 14ZM9.54546 8.9091C9.37669 8.9091 9.21482 8.97614 9.09548 9.09548C8.97614 9.21482 8.9091 9.37669 8.9091 9.54546V12.0909C8.9091 12.2597 8.97614 12.4216 9.09548 12.5409C9.21482 12.6602 9.37669 12.7273 9.54546 12.7273H12.0909C12.2597 12.7273 12.4216 12.6602 12.5409 12.5409C12.6602 12.4216 12.7273 12.2597 12.7273 12.0909V9.54546C12.7273 9.37669 12.6602 9.21482 12.5409 9.09548C12.4216 8.97614 12.2597 8.9091 12.0909 8.9091H9.54546Z" fill="white"/>
</svg>
