<svg width="14" height="14" viewBox="0 0 14 14" fill="none" xmlns="http://www.w3.org/2000/svg">
<path fill-rule="evenodd" clip-rule="evenodd" d="M2.69212 12.2911L1.19403 13.7892C1.06207 13.9166 0.885316 13.9872 0.701853 13.9856C0.51839 13.984 0.342893 13.9104 0.21316 13.7807C0.0834267 13.6509 0.00983834 13.4754 0.0082441 13.292C0.00664985 13.1085 0.0771772 12.9318 0.204636 12.7998L12.7995 0.204911C12.9307 0.0737087 13.1087 0 13.2942 0C13.4798 0 13.6577 0.0737087 13.7889 0.204911C13.9201 0.336113 13.9938 0.514062 13.9938 0.69961C13.9938 0.885158 13.9201 1.06311 13.7889 1.19431L13.5706 1.41262C13.6553 1.50078 13.7378 1.59035 13.819 1.68201C13.9323 1.82244 13.9871 2.00119 13.9719 2.181C13.9566 2.36081 13.8726 2.52781 13.7372 2.64718C13.6019 2.76654 13.4257 2.82907 13.2454 2.82172C13.0651 2.81437 12.8946 2.73772 12.7694 2.60773C12.7076 2.53832 12.6449 2.46975 12.5812 2.40202L11.5911 3.39211C12.1439 3.98121 12.5784 4.67104 12.8709 5.42409C13.0976 6.00905 13.2354 6.6269 13.2788 7.25245C13.3488 8.238 13.1857 9.2262 12.8027 10.137C12.4196 11.0477 11.8274 11.8555 11.074 12.4947C10.4181 13.0527 9.65492 13.4703 8.83143 13.722C8.04875 13.9591 7.22758 14.0425 6.41321 13.9676C5.05416 13.8412 3.77312 13.2761 2.7635 12.3576L2.69212 12.2911ZM10.6017 4.38151L3.68222 11.301C4.58472 12.1343 5.76842 12.5963 6.99677 12.5948C9.69978 12.5948 11.8948 10.3998 11.8948 7.69676C11.8962 6.46835 11.4345 5.28455 10.6017 4.38151ZM1.10447 9.92046C1.00723 9.66489 0.92728 9.40307 0.865167 9.13678C0.708831 8.46745 0.66251 7.77713 0.728023 7.09291C0.859877 5.70847 1.44815 4.40712 2.40034 3.39351L2.40244 3.39211L1.41235 2.40202L1.39415 2.42161C1.35077 2.46779 1.30809 2.51397 1.2661 2.56085C1.23182 2.59864 1.19893 2.63712 1.16115 2.67141C1.08309 2.73941 0.990952 2.7893 0.891343 2.8175C0.791735 2.8457 0.68712 2.85152 0.584999 2.83453C0.482878 2.81754 0.38578 2.77818 0.300664 2.71925C0.215549 2.66032 0.144524 2.58329 0.0926815 2.49368C0.0275936 2.37994 -0.00434735 2.25024 0.000475548 2.11928C0.00529845 1.98832 0.0466925 1.86133 0.11997 1.75268C0.150758 1.7072 0.187843 1.66732 0.224228 1.62673C0.682072 1.11785 1.19482 0.661189 1.75311 0.265087C1.80419 0.228701 1.85526 0.193716 1.90704 0.15873C1.95253 0.127942 1.99731 0.0964551 2.04629 0.071965C2.16666 0.0132765 2.30126 -0.0099278 2.43434 0.00506531C2.56742 0.0200584 2.69348 0.0726293 2.79778 0.156631C2.91274 0.24928 2.9952 0.376141 3.03319 0.518814C3.07119 0.661487 3.06275 0.812555 3.0091 0.950108C2.97037 1.05193 2.9083 1.14324 2.82787 1.2167C2.77819 1.26218 2.72081 1.29717 2.66484 1.33495C2.60396 1.37693 2.54379 1.41962 2.48361 1.463L2.46542 1.47629L3.46951 2.48039L3.47651 2.47549C4.3107 1.91263 5.26768 1.55796 6.26722 1.4412C7.26675 1.32445 8.27971 1.44902 9.22117 1.80446L8.10093 2.92401C7.29105 2.73701 6.44691 2.75909 5.64792 2.98819C4.84893 3.21728 4.12134 3.64585 3.5336 4.23359C2.94586 4.82133 2.51729 5.54892 2.2882 6.34791C2.0591 7.1469 2.03701 7.99104 2.22401 8.80092L1.10447 9.92046Z" fill="#8D8585"/>
</svg>
