<svg width="12" height="14" viewBox="0 0 12 14" fill="none" xmlns="http://www.w3.org/2000/svg">
<path d="M5.72844 6.71647C6.65114 6.71647 7.45003 6.38551 8.10299 5.73255C8.75573 5.07973 9.08677 4.28094 9.08677 3.35814C9.08677 2.43561 8.75584 1.63674 8.10288 0.98367C7.44992 0.330931 6.65103 0 5.72844 0C4.80561 0 4.00679 0.330931 3.35397 0.983779C2.70115 1.63663 2.37008 2.43552 2.37008 3.35814C2.37008 4.28094 2.70112 5.07984 3.354 5.73269C4.00704 6.38543 4.80593 6.71647 5.72841 6.71647H5.72844ZM3.93182 1.56152C4.43274 1.06057 5.02039 0.817088 5.72844 0.817088C6.43638 0.817088 7.02411 1.06057 7.52514 1.56152C8.02608 2.06255 8.26968 2.65028 8.26968 3.35811C8.26968 4.06616 8.02608 4.65381 7.52514 5.15484C7.02411 5.65589 6.43638 5.89938 5.72844 5.89938C5.02058 5.89938 4.43298 5.65578 3.93182 5.15484C3.43077 4.65392 3.18717 4.06619 3.18717 3.35814C3.18717 2.65028 3.43077 2.06255 3.93182 1.56152ZM11.6046 10.7216C11.5858 10.4499 11.5477 10.1535 11.4916 9.84057C11.435 9.52524 11.3622 9.22718 11.2749 8.95474C11.1847 8.67316 11.0623 8.39511 10.9107 8.12861C10.7536 7.85204 10.5689 7.61119 10.3617 7.41302C10.145 7.2057 9.8797 7.03901 9.5729 6.91739C9.26718 6.79648 8.92836 6.7352 8.56594 6.7352C8.4236 6.7352 8.28596 6.79359 8.02012 6.96668C7.83115 7.08973 7.64162 7.21192 7.45153 7.33323C7.26888 7.44962 7.02144 7.55866 6.71581 7.65738C6.41764 7.75387 6.1149 7.8028 5.81596 7.8028C5.51728 7.8028 5.2145 7.75387 4.91612 7.65738C4.61084 7.55874 4.36329 7.44973 4.18094 7.33334C3.96935 7.19813 3.7779 7.07474 3.61184 6.96654C3.34621 6.79348 3.20855 6.73507 3.06623 6.73507C2.70368 6.73507 2.36499 6.79645 2.05936 6.91752C1.75277 7.0389 1.48736 7.20559 1.27046 7.41313C1.06324 7.61141 0.878579 7.85212 0.721556 8.12861C0.570197 8.39509 0.44765 8.67305 0.357428 8.95485C0.270284 9.22729 0.197437 9.52524 0.140847 9.84057C0.0846663 10.1531 0.046704 10.4496 0.027859 10.7219C0.00934079 10.9881 0 11.2653 0 11.5452C0 12.2731 0.231368 12.8623 0.687624 13.2969C1.13824 13.7257 1.73439 13.9431 2.45954 13.9431H9.17326C9.89819 13.9431 10.4943 13.7257 10.9451 13.2969C11.4014 12.8626 11.6328 12.2732 11.6328 11.5451C11.6327 11.2642 11.6232 10.9871 11.6046 10.7216ZM10.3817 12.7049C10.0839 12.9883 9.68864 13.126 9.17312 13.126H2.45957C1.94397 13.126 1.54867 12.9883 1.25101 12.705C0.959024 12.427 0.817115 12.0476 0.817115 11.5452C0.817115 11.284 0.825721 11.026 0.842986 10.7784C0.859761 10.5354 0.894129 10.2685 0.945109 9.9849C0.995407 9.70481 1.05943 9.44196 1.1356 9.204C1.20869 8.97579 1.30836 8.74987 1.43197 8.53223C1.54995 8.32477 1.68567 8.14681 1.83545 8.00343C1.97556 7.86928 2.15217 7.7595 2.36023 7.67718C2.55265 7.60098 2.76893 7.55929 3.00371 7.553C3.0323 7.56825 3.08328 7.59728 3.16582 7.65109C3.33379 7.76057 3.52739 7.88545 3.74144 8.02213C3.98272 8.17597 4.29352 8.31489 4.6649 8.43476C5.04455 8.55753 5.43177 8.61986 5.8161 8.61986C6.20046 8.61986 6.58776 8.55753 6.96722 8.43487C7.3389 8.31478 7.64962 8.17597 7.89123 8.02192C8.11026 7.88194 8.29844 7.76067 8.46638 7.65109C8.54895 7.59736 8.5999 7.56822 8.62852 7.55303C8.86341 7.55929 9.07966 7.60098 9.27219 7.67715C9.48017 7.7595 9.65677 7.86939 9.79686 8.0034C9.94664 8.1467 10.0824 8.32469 10.2003 8.53234C10.3241 8.74987 10.4239 8.97593 10.4968 9.20389C10.5731 9.44218 10.6372 9.70492 10.6874 9.98479C10.7383 10.2689 10.7728 10.536 10.7896 10.7785V10.7787C10.8069 11.0254 10.8156 11.2832 10.8157 11.5452C10.8156 12.0477 10.6737 12.427 10.3817 12.7049H10.3817Z" fill="#8D8585"/>
</svg>
