<svg width="15" height="15" viewBox="0 0 15 15" fill="none" xmlns="http://www.w3.org/2000/svg">
<path d="M7.02674 4.55697e-05C6.84028 0.00215916 6.66225 0.078358 6.53165 0.211954C6.40104 0.345551 6.32851 0.525656 6.32992 0.712826V6.36985C6.32992 6.55748 6.40417 6.73743 6.53635 6.87011C6.66853 7.00278 6.8478 7.07732 7.03472 7.07732C7.22165 7.07732 7.40091 7.00278 7.53309 6.87011C7.66527 6.73743 7.73952 6.55748 7.73952 6.36985V0.712826C7.74023 0.618796 7.72226 0.525568 7.68666 0.438591C7.65106 0.351615 7.59854 0.272635 7.53217 0.206269C7.46581 0.139904 7.38693 0.0874843 7.30014 0.0520753C7.21336 0.0166663 7.12041 -0.00102165 7.02674 4.55697e-05ZM11.1332 1.41497C11.1102 1.41383 11.0871 1.41383 11.0641 1.41497C10.9245 1.42662 10.7915 1.47975 10.6822 1.56758C10.5728 1.65541 10.492 1.77396 10.45 1.90809C10.4081 2.04222 10.4069 2.18585 10.4466 2.32067C10.4864 2.45548 10.5652 2.57535 10.6731 2.66499C11.8939 3.70491 12.6652 5.25281 12.6652 6.98955C12.6652 10.1279 10.1545 12.6572 7.03738 12.6572C6.29581 12.6558 5.5618 12.5082 4.87738 12.2227C4.19296 11.9372 3.57158 11.5195 3.04882 10.9935C2.52606 10.4676 2.11219 9.84364 1.8309 9.15749C1.54962 8.47133 1.40646 7.73643 1.40961 6.99487C1.40961 5.26611 2.17026 3.72884 3.37773 2.68627C3.45285 2.62751 3.51532 2.55407 3.56138 2.4704C3.60743 2.38672 3.63612 2.29455 3.6457 2.19944C3.65528 2.10433 3.64556 2.00826 3.61712 1.91702C3.58868 1.82579 3.54212 1.74128 3.48024 1.66862C3.41837 1.59595 3.34246 1.53662 3.25711 1.49422C3.17175 1.45181 3.07872 1.42721 2.98364 1.4219C2.88855 1.41659 2.79337 1.43067 2.70386 1.46331C2.61434 1.49595 2.53235 1.54645 2.46282 1.61178C1.68952 2.27816 1.06916 3.10359 0.644122 4.03171C0.219081 4.95982 -0.000627357 5.96874 4.60169e-06 6.98955C-0.0021287 8.86126 0.737549 10.6575 2.05705 11.985C3.37656 13.3125 5.16835 14.063 7.04004 14.0721C8.91146 14.0637 10.7031 13.3133 12.0219 11.9855C13.3407 10.6577 14.079 8.86098 14.0748 6.98955C14.0748 4.82993 13.1093 2.8884 11.5853 1.5905C11.4601 1.48017 11.2999 1.41798 11.1332 1.41497Z" fill="#8D8585"/>
</svg>
