<svg width="17" height="16" viewBox="0 0 17 16" fill="none" xmlns="http://www.w3.org/2000/svg">
<path d="M8.3917 1.46064C8.38113 1.41921 8.3625 1.38027 8.33688 1.34604C8.31125 1.31181 8.27914 1.28297 8.24237 1.26116C8.2056 1.23934 8.16489 1.22499 8.12256 1.21891C8.08024 1.21284 8.03714 1.21516 7.99572 1.22574C7.29361 1.40506 6.70955 1.84564 6.35124 2.46633C6.26132 2.62204 6.31468 2.82113 6.47039 2.91101C6.50741 2.93241 6.54828 2.9463 6.59067 2.95189C6.63306 2.95748 6.67613 2.95467 6.71743 2.9436C6.75873 2.93253 6.79744 2.91344 6.83136 2.8874C6.86527 2.86136 6.89372 2.8289 6.91508 2.79186C7.185 2.32429 7.62601 1.99212 8.15684 1.85658C8.33101 1.81214 8.43617 1.63488 8.3917 1.46064ZM9.10181 1.17876C9.09693 1.17789 9.09201 1.17707 9.0868 1.17629C8.90931 1.14907 8.74435 1.2708 8.7168 1.44823C8.68933 1.62534 8.81122 1.79137 8.9879 1.8198C9.00641 1.82303 9.02517 1.82465 9.04396 1.82465C9.19824 1.82465 9.33527 1.71444 9.36386 1.55729C9.39599 1.38038 9.27869 1.21093 9.10181 1.17876Z" fill="#8D8585"/>
<path d="M15.0072 9.5235C14.7676 9.45503 14.5084 9.39438 14.2337 9.3419C14.2181 9.33786 14.2022 9.33498 14.1862 9.33327C13.3853 9.18397 12.4554 9.10362 11.4858 9.10362C10.9487 9.10362 10.424 9.12859 9.92625 9.1759L11.9379 5.6918C12.4428 4.81718 12.576 3.79485 12.3129 2.81305C12.0499 1.83132 11.4233 1.01256 10.5487 0.507651C8.73639 -0.53864 6.4108 0.0844203 5.36454 1.89666L2.9364 6.1022C2.93618 6.10256 2.93592 6.10285 2.93572 6.10321L2.93517 6.10429L0.506996 10.31C0.00201747 11.1846 -0.13117 12.2069 0.131884 13.1887C0.394938 14.1705 1.02151 14.9893 1.89614 15.4941C2.46996 15.8257 3.12106 16.0002 3.78381 16C4.06151 16 4.34091 15.9695 4.61725 15.9078C5.35266 15.7436 6.01381 15.371 6.52647 14.8398C6.78412 15.1334 7.26361 15.3816 7.96155 15.581C8.90727 15.8512 10.1588 16 11.4857 16C12.8126 16 14.0641 15.8512 15.0098 15.581C16.1105 15.2665 16.6686 14.831 16.6686 14.2866V10.819C16.6687 10.8183 16.6687 10.8177 16.6687 10.817C16.6688 10.2737 16.1097 9.83848 15.0072 9.5235ZM11.4859 9.75468C11.9983 9.75471 12.4976 9.77812 12.9701 9.82246L8.83445 11.6478C8.5891 11.6001 8.35746 11.5457 8.14331 11.4846C7.16763 11.2058 6.954 10.9081 6.954 10.817C6.954 10.7258 7.16767 10.4282 8.14334 10.1494C9.03424 9.8949 10.2213 9.75468 11.4859 9.75468ZM5.92835 2.22222C6.79513 0.720894 8.72177 0.204715 10.2231 1.07149C10.9471 1.48948 11.466 2.16785 11.6841 2.9816C11.9021 3.79537 11.792 4.64225 11.3741 5.36627L9.11642 9.2765C9.10759 9.27786 9.09896 9.27939 9.09014 9.28079L3.66237 6.14687L5.92835 2.22222ZM6.30288 10.8153C6.30288 10.8159 6.30278 10.8165 6.30278 10.8171V14.1003C5.35852 15.3508 3.58668 15.7184 2.22173 14.9303C1.49771 14.5123 0.978866 13.8339 0.760804 13.0202C0.542743 12.2064 0.652881 11.3595 1.07084 10.6355L3.33685 6.71068L8.13019 9.47831C8.07403 9.493 8.01856 9.50797 7.96435 9.52347C6.86304 9.83815 6.30408 10.2728 6.30288 10.8153ZM16.0176 14.2866C16.0176 14.3782 15.8045 14.6769 14.8311 14.955C13.9419 15.209 12.7539 15.3489 11.4858 15.3489C10.2177 15.3489 9.02965 15.209 8.14048 14.955C7.16705 14.6769 6.9539 14.3782 6.9539 14.2866V11.706C7.21367 11.8574 7.55082 11.9924 7.96441 12.1106C8.21985 12.1836 8.49795 12.2474 8.7929 12.3022C8.80723 12.3058 8.82175 12.3085 8.8365 12.3101C9.62576 12.4534 10.5367 12.5305 11.4858 12.5305C12.8091 12.5305 14.0597 12.3813 15.0072 12.1106C15.4208 11.9925 15.7578 11.8575 16.0176 11.7061V14.2866ZM16.0176 10.8171V10.818C16.0163 10.9101 15.801 11.2067 14.8284 11.4847C13.9375 11.7391 12.7504 11.8794 11.4858 11.8794C10.9954 11.8794 10.517 11.858 10.0627 11.8174L14.1881 9.99657C14.4145 10.0418 14.6292 10.0926 14.8284 10.1495C15.8023 10.4277 16.0169 10.7248 16.0177 10.8166L16.0176 10.8171Z" fill="#8D8585"/>
</svg>
