<svg width="16" height="17" viewBox="0 0 16 17" fill="none" xmlns="http://www.w3.org/2000/svg">
<path d="M13.7934 11.973C14.2819 11.6464 14.6037 11.0947 14.6037 10.47C14.6037 9.4694 13.7782 8.65548 12.7638 8.65548C11.7495 8.65548 10.924 9.4694 10.924 10.47C10.924 11.0859 11.2374 11.6302 11.7145 11.9583C11.2049 12.1824 10.7675 12.5707 10.4644 13.079C10.0757 12.4723 9.51643 12.0018 8.86204 11.7451C9.49949 11.3607 9.92658 10.6739 9.92658 9.88971C9.92658 8.68719 8.92548 7.70886 7.69504 7.70886C6.4646 7.70886 5.4635 8.68719 5.4635 9.88971C5.4635 10.6837 5.90143 11.3781 6.55216 11.7595C5.9139 12.0193 5.36862 12.4838 4.98735 13.079C4.68414 12.5707 4.24689 12.1824 3.73726 11.9583C4.21436 11.6302 4.52773 11.0859 4.52773 10.47C4.52773 9.4694 3.70229 8.65548 2.6879 8.65548C1.67352 8.65548 0.848077 9.4694 0.848077 10.47C0.848077 11.0945 1.16985 11.6464 1.65834 11.973C0.684751 12.4188 0 13.4626 0 14.6759V15.8409C0 15.9128 0.0285602 15.9817 0.0793978 16.0326C0.130235 16.0834 0.199186 16.112 0.271081 16.112H4.40385V16.5359C4.40385 16.6078 4.43241 16.6768 4.48324 16.7276C4.53408 16.7785 4.60303 16.807 4.67493 16.807H10.7767C10.8486 16.807 10.9175 16.7785 10.9684 16.7276C11.0192 16.6768 11.0478 16.6078 11.0478 16.5359V16.112H15.1805C15.2524 16.112 15.3214 16.0834 15.3722 16.0326C15.4231 15.9817 15.4516 15.9128 15.4516 15.8409V14.6759C15.4516 13.4626 14.7669 12.4188 13.7934 11.973ZM12.7638 9.19764C13.4794 9.19764 14.0615 9.7684 14.0615 10.47C14.0615 11.1715 13.4794 11.7423 12.7638 11.7423C12.0483 11.7423 11.4662 11.1715 11.4662 10.47C11.4662 9.7684 12.0483 9.19764 12.7638 9.19764ZM6.00566 9.88971C6.00566 8.9862 6.76347 8.25102 7.69504 8.25102C8.62661 8.25102 9.38442 8.9862 9.38442 9.88971C9.38442 10.7934 8.62661 11.5285 7.69504 11.5285C6.76347 11.5285 6.00566 10.7934 6.00566 9.88971ZM2.68777 9.19764C3.40329 9.19764 3.98543 9.7684 3.98543 10.47C3.98543 11.1715 3.40329 11.7423 2.68777 11.7423C1.97225 11.7423 1.3901 11.1715 1.3901 10.47C1.3901 9.7684 1.97225 9.19764 2.68777 9.19764ZM4.40385 15.0943V15.5698H0.542162V14.6759C0.542162 13.3572 1.51588 12.2843 2.71257 12.2843C3.56499 12.2843 4.32645 12.8259 4.68062 13.6716C4.49716 14.1234 4.40316 14.6066 4.40385 15.0943ZM10.5056 16.2649H4.94601V15.0943C4.94601 13.427 6.19298 12.0706 7.72581 12.0706C9.25863 12.0706 10.5056 13.427 10.5056 15.0943V16.2649ZM14.9095 15.5698H11.0478V15.0943C11.0485 14.6066 10.9545 14.1234 10.7711 13.6716C11.1252 12.8259 11.8866 12.2843 12.7392 12.2843C13.9359 12.2843 14.9096 13.3571 14.9096 14.6759L14.9095 15.5698ZM8.22392 5.62208H7.2277C7.1558 5.62208 7.08685 5.59352 7.03601 5.54268C6.98517 5.49185 6.95661 5.42289 6.95661 5.351V4.19281H5.83691C5.76502 4.19281 5.69607 4.16425 5.64523 4.11341C5.59439 4.06257 5.56583 3.99362 5.56583 3.92173V2.90382C5.56583 2.83192 5.59439 2.76297 5.64523 2.71213C5.69607 2.6613 5.76502 2.63274 5.83691 2.63274H6.95661V1.47454C6.95661 1.40265 6.98517 1.3337 7.03601 1.28286C7.08685 1.23202 7.1558 1.20346 7.2277 1.20346H8.22392C8.29581 1.20346 8.36476 1.23202 8.4156 1.28286C8.46644 1.3337 8.495 1.40265 8.495 1.47454V2.63274H9.6147C9.68659 2.63274 9.75554 2.6613 9.80638 2.71213C9.85722 2.76297 9.88578 2.83192 9.88578 2.90382V3.92173C9.88578 3.99362 9.85722 4.06257 9.80638 4.11341C9.75554 4.16425 9.68659 4.19281 9.6147 4.19281H8.495V5.351C8.495 5.42289 8.46644 5.49185 8.4156 5.54268C8.36476 5.59352 8.29581 5.62208 8.22392 5.62208ZM7.49878 5.07992H7.95284V3.92173C7.95284 3.84983 7.9814 3.78088 8.03224 3.73004C8.08307 3.6792 8.15202 3.65064 8.22392 3.65064H9.34362V3.1749H8.22392C8.15202 3.1749 8.08307 3.14634 8.03224 3.0955C7.9814 3.04466 7.95284 2.97571 7.95284 2.90382V1.74562H7.49878V2.90382C7.49878 2.97571 7.47022 3.04466 7.41938 3.0955C7.36854 3.14634 7.29959 3.1749 7.2277 3.1749H6.108V3.65064H7.2277C7.29959 3.65064 7.36854 3.6792 7.41938 3.73004C7.47022 3.78088 7.49878 3.84983 7.49878 3.92173V5.07992Z" fill="#8D8585"/>
<path d="M7.72582 6.82541C5.86634 6.82541 4.35358 5.29448 4.35358 3.41264C4.35358 1.53079 5.86634 0 7.72582 0C9.5853 0 11.0981 1.53093 11.0981 3.41277C11.0981 5.29462 9.5853 6.82541 7.72582 6.82541ZM7.72582 0.542162C6.16521 0.542162 4.89574 1.82993 4.89574 3.41277C4.89574 4.99562 6.16521 6.28325 7.72582 6.28325C9.28644 6.28325 10.5559 4.99548 10.5559 3.41264C10.5559 1.8298 9.28644 0.542162 7.72582 0.542162Z" fill="#8D8585"/>
</svg>
