<svg width="26" height="27" viewBox="0 0 26 27" fill="none" xmlns="http://www.w3.org/2000/svg">
<path d="M20.9258 12.0463C21.2673 12.0774 21.6088 12.1705 21.9504 12.3257C21.05 10.0903 19.4045 8.25856 17.3243 7.14086C17.4796 7.51343 17.6038 7.886 17.6658 8.28961C19.063 9.22103 20.2117 10.525 20.9258 12.0463ZM12.481 25.4897C10.9907 25.4897 9.59359 25.1482 8.3517 24.5273H6.73725C8.38275 25.645 10.3387 26.297 12.481 26.297C14.6232 26.297 16.6102 25.645 18.2247 24.5273H16.6102C15.3684 25.1172 13.9712 25.4897 12.481 25.4897ZM7.29609 8.28961C7.35819 7.886 7.48238 7.48238 7.66866 7.10982C5.5885 8.22752 3.91195 10.0593 3.04263 12.2947C3.3531 12.1705 3.69462 12.0774 4.06719 12.0153C4.75023 10.525 5.89897 9.22103 7.29609 8.28961ZM8.56903 16.2377C8.56903 18.411 10.3387 20.1496 12.481 20.1496C14.6232 20.1496 16.3929 18.411 16.3929 16.2377C16.3929 14.0644 14.6232 12.3257 12.481 12.3257C10.3387 12.3257 8.56903 14.0954 8.56903 16.2377ZM15.5857 16.2377C15.5857 17.9453 14.1886 19.3424 12.481 19.3424C10.7734 19.3424 9.37626 17.9453 9.37626 16.2377C9.37626 14.5301 10.7734 13.133 12.481 13.133C14.1886 13.133 15.5857 14.5301 15.5857 16.2377Z" fill="white"/>
<path d="M11.3322 16.1135C11.177 15.9582 10.9286 15.9582 10.7423 16.1135C10.5871 16.2687 10.5871 16.5171 10.7423 16.7034L11.7048 17.6658C11.7669 17.7279 11.8911 17.79 11.9842 17.79C12.0773 17.79 12.2015 17.759 12.2636 17.6658L14.1575 15.772C14.3127 15.6167 14.3127 15.3683 14.1575 15.1821C14.0023 15.0268 13.7539 15.0268 13.5676 15.1821L11.9532 16.7965L11.3322 16.1135ZM8.44483 10.8355H16.5171C16.7344 10.8355 16.9207 10.6492 16.9207 10.4318V9.25206C16.9207 7.35818 15.7409 5.74373 14.0644 5.09174C14.8095 4.59498 15.2752 3.72566 15.2752 2.79425C15.2752 1.24189 14.0023 0 12.481 0C10.9597 0 9.68672 1.27293 9.68672 2.79425C9.68672 3.75671 10.1524 4.59498 10.8976 5.09174C9.22101 5.74373 8.04122 7.35818 8.04122 9.25206V10.4318C8.04122 10.6492 8.19645 10.8355 8.44483 10.8355ZM10.4939 2.79425C10.4939 1.70759 11.3943 0.807226 12.481 0.807226C13.5676 0.807226 14.468 1.70759 14.468 2.79425C14.468 3.8809 13.5676 4.78126 12.481 4.78126C11.3943 4.78126 10.4939 3.8809 10.4939 2.79425ZM8.84844 9.25206C8.84844 7.23399 10.4939 5.61954 12.481 5.61954C14.468 5.61954 16.1135 7.23399 16.1135 9.25206V10.0282H15.151V8.78635C15.151 8.56902 14.9647 8.38274 14.7474 8.38274C14.5301 8.38274 14.3438 8.56902 14.3438 8.78635V9.99719H10.6181V8.78635C10.6181 8.56902 10.4318 8.38274 10.2145 8.38274C9.99719 8.38274 9.81091 8.56902 9.81091 8.78635V9.99719H8.84844V9.25206ZM22.1366 17.9453C22.8818 17.4485 23.3475 16.5792 23.3475 15.6478C23.3475 14.0954 22.0745 12.8535 20.5532 12.8535C19.0009 12.8535 17.759 14.1265 17.759 15.6478C17.759 16.6102 18.2247 17.4485 18.9698 17.9453C17.2933 18.5973 16.1135 20.2117 16.1135 22.1056V23.2854C16.1135 23.5027 16.2998 23.689 16.5171 23.689H24.6204C24.8377 23.689 25.024 23.5027 25.024 23.2854V22.1056C24.993 20.2117 23.7821 18.5973 22.1366 17.9453ZM18.5352 15.6478C18.5352 14.5611 19.4355 13.6608 20.5222 13.6608C21.6088 13.6608 22.5092 14.5611 22.5092 15.6478C22.5092 16.7344 21.6088 17.6348 20.5222 17.6348C19.4355 17.6348 18.5352 16.7655 18.5352 15.6478ZM24.1547 22.8818H23.1922V21.6709C23.1922 21.4536 23.0059 21.2673 22.7886 21.2673C22.5713 21.2673 22.385 21.4536 22.385 21.6709V22.8818H18.6904V21.6709C18.6904 21.4536 18.5041 21.2673 18.2868 21.2673C18.0695 21.2673 17.8832 21.4536 17.8832 21.6709V22.8818H16.9207V22.1056C16.9207 20.0875 18.5662 18.4731 20.5532 18.4731C22.5713 18.4731 24.1857 20.1186 24.1857 22.1056V22.8818H24.1547ZM8.87949 23.2854V22.1056C8.87949 20.2117 7.6997 18.5973 6.02315 17.9453C6.76828 17.4485 7.23399 16.5792 7.23399 15.6478C7.23399 14.0954 5.96106 12.8535 4.43974 12.8535C2.88739 12.8535 1.6455 14.1265 1.6455 15.6478C1.6455 16.6102 2.11121 17.4485 2.85634 17.9453C1.17979 18.5973 0 20.2117 0 22.1056V23.2854C0 23.5027 0.186283 23.689 0.403613 23.689H8.50692C8.69321 23.689 8.87949 23.5027 8.87949 23.2854ZM2.45273 15.6478C2.45273 14.5611 3.35309 13.6608 4.43974 13.6608C5.5264 13.6608 6.42676 14.5611 6.42676 15.6478C6.42676 16.7344 5.5264 17.6348 4.43974 17.6348C3.35309 17.6348 2.45273 16.7655 2.45273 15.6478ZM8.07226 22.8818H7.1098V21.6709C7.1098 21.4536 6.92352 21.2673 6.70619 21.2673C6.48886 21.2673 6.30258 21.4536 6.30258 21.6709V22.8818H2.57692V21.6709C2.57692 21.4536 2.39063 21.2673 2.1733 21.2673C1.95597 21.2673 1.76969 21.4536 1.76969 21.6709V22.8818H0.807226V22.1056C0.807226 20.0875 2.45273 18.4731 4.43974 18.4731C6.45781 18.4731 8.07226 20.1186 8.07226 22.1056V22.8818Z" fill="white"/>
</svg>
