<svg width="22" height="22" viewBox="0 0 22 22" fill="none" xmlns="http://www.w3.org/2000/svg">
<path d="M20.1485 12.8582V12.7776C20.1475 12.013 19.8436 11.2798 19.3032 10.7388C18.7629 10.1978 18.0301 9.89288 17.2655 9.89095H8.38194C7.73676 9.89132 7.11036 10.1081 6.60295 10.5066C6.09555 10.9051 5.73647 11.4622 5.58317 12.0889L2.62321 9.34878C2.60467 9.33219 2.58985 9.31186 2.57975 9.28913C2.56965 9.26639 2.56448 9.24178 2.5646 9.2169V7.87613C2.56593 7.66499 2.51465 7.45684 2.41539 7.27049C2.31612 7.08413 2.172 6.92544 1.99604 6.80874C1.82008 6.69203 1.61782 6.621 1.40753 6.60205C1.19724 6.5831 0.985542 6.61684 0.791554 6.7002C0.55142 6.80854 0.348406 6.98504 0.20773 7.20777C0.0670547 7.43051 -0.00508291 7.68967 0.000278555 7.95305V20.6977C-0.00255354 20.8671 0.0283827 21.0353 0.0912805 21.1925C0.154178 21.3497 0.247777 21.4929 0.36661 21.6135C0.545653 21.7941 0.775128 21.9163 1.02488 21.964C1.27464 22.0117 1.53299 21.9828 1.76599 21.881C2.00838 21.7739 2.21359 21.5974 2.35573 21.3737C2.49786 21.1501 2.57055 20.8894 2.5646 20.6245V18.4997C2.5646 18.4512 2.58389 18.4046 2.61824 18.3702C2.65259 18.3359 2.69918 18.3166 2.74776 18.3166H19.2327C19.2812 18.3166 19.3278 18.3359 19.3622 18.3702C19.3965 18.4046 19.4158 18.4512 19.4158 18.4997V20.6977C19.4149 20.8654 19.447 21.0317 19.5104 21.187C19.5738 21.3423 19.6672 21.4835 19.7853 21.6026C19.9034 21.7217 20.0438 21.8163 20.1986 21.8811C20.3533 21.9458 20.5193 21.9794 20.687 21.9799C20.86 21.9807 21.0311 21.9444 21.1889 21.8736C21.4287 21.7659 21.6316 21.5901 21.7723 21.368C21.913 21.1459 21.9853 20.8873 21.9801 20.6245V15.0196C21.9788 14.5012 21.7942 13.9999 21.459 13.6044C21.1238 13.2089 20.6597 12.9446 20.1485 12.8582ZM6.22791 12.7776C6.22888 12.2067 6.45613 11.6593 6.85988 11.2556C7.26363 10.8518 7.81095 10.6246 8.38194 10.6236H17.2655C17.8358 10.6255 18.3822 10.8532 18.7852 11.2569C19.1881 11.6605 19.4149 12.2073 19.4158 12.7776V15.3859H6.22791V12.7776ZM21.2475 20.6245C21.2512 20.7437 21.2207 20.8615 21.1597 20.9641C21.0987 21.0666 21.0097 21.1496 20.9031 21.2033C20.8043 21.2464 20.6947 21.2586 20.5888 21.2383C20.4829 21.218 20.3856 21.1662 20.3097 21.0897C20.2582 21.0383 20.2174 20.9772 20.1898 20.9099C20.1621 20.8426 20.1481 20.7705 20.1485 20.6977V18.4997C20.1475 18.2571 20.0507 18.0247 19.8792 17.8532C19.7076 17.6817 19.4753 17.5849 19.2327 17.5839H2.74776C2.50517 17.5849 2.27278 17.6817 2.10124 17.8532C1.9297 18.0247 1.8329 18.2571 1.83193 18.4997V20.6245C1.83562 20.7437 1.80516 20.8615 1.74416 20.9641C1.68316 21.0666 1.59414 21.1496 1.48758 21.2033C1.38874 21.2464 1.27919 21.2586 1.17328 21.2383C1.06738 21.218 0.970071 21.1662 0.894127 21.0897C0.842648 21.0383 0.801892 20.9772 0.774222 20.9099C0.746553 20.8426 0.732521 20.7705 0.732941 20.6977V7.95305C0.72835 7.83363 0.758421 7.71544 0.819525 7.61273C0.880629 7.51003 0.970153 7.4272 1.07729 7.37425C1.17593 7.33011 1.28575 7.31734 1.39189 7.33765C1.49803 7.35796 1.59537 7.41038 1.67075 7.48781C1.77383 7.59077 1.83181 7.73044 1.83193 7.87613V9.2169C1.83158 9.3434 1.85744 9.4686 1.90788 9.58461C1.95832 9.70062 2.03225 9.80493 2.125 9.89095L5.49525 13.0084V15.7522C5.49525 15.8494 5.53384 15.9426 5.60254 16.0113C5.67124 16.08 5.76442 16.1186 5.86158 16.1186H19.7822C19.8793 16.1186 19.9725 16.08 20.0412 16.0113C20.1099 15.9426 20.1485 15.8494 20.1485 15.7522V13.6092C20.4616 13.6901 20.7392 13.8722 20.938 14.1273C21.1368 14.3825 21.2456 14.6962 21.2475 15.0196V20.6245Z" fill="white"/>
<path d="M6.96057 4.02964C6.96057 4.82663 7.19691 5.60572 7.63969 6.26839C8.08247 6.93106 8.71182 7.44755 9.44814 7.75255C10.1845 8.05754 10.9947 8.13734 11.7764 7.98186C12.558 7.82637 13.276 7.44259 13.8396 6.87903C14.4032 6.31547 14.7869 5.59746 14.9424 4.81579C15.0979 4.03411 15.0181 3.22389 14.7131 2.48757C14.4081 1.75124 13.8916 1.1219 13.229 0.679117C12.5663 0.236334 11.7872 0 10.9902 0C9.92149 0 8.89653 0.424551 8.14083 1.18026C7.38512 1.93596 6.96057 2.96092 6.96057 4.02964ZM10.9902 0.732662C11.6423 0.732662 12.2797 0.926027 12.8219 1.2883C13.3641 1.65058 13.7867 2.1655 14.0362 2.76794C14.2858 3.37039 14.3511 4.0333 14.2238 4.67285C14.0966 5.3124 13.7826 5.89987 13.3215 6.36096C12.8604 6.82205 12.273 7.13606 11.6334 7.26327C10.9939 7.39049 10.331 7.3252 9.72851 7.07566C9.12607 6.82612 8.61115 6.40353 8.24887 5.86135C7.8866 5.31916 7.69323 4.68172 7.69323 4.02964C7.69323 3.15523 8.04059 2.31663 8.6589 1.69833C9.2772 1.08002 10.1158 0.732662 10.9902 0.732662Z" fill="white"/>
<path d="M8.79223 5.12864H9.89122V6.22764C9.89122 6.32479 9.92981 6.41797 9.99851 6.48667C10.0672 6.55537 10.1604 6.59397 10.2575 6.59397H11.7229C11.82 6.59397 11.9132 6.55537 11.9819 6.48667C12.0506 6.41797 12.0892 6.32479 12.0892 6.22764V5.12864H13.1882C13.2854 5.12864 13.3785 5.09005 13.4472 5.02135C13.5159 4.95265 13.5545 4.85947 13.5545 4.76231V3.29699C13.5545 3.19983 13.5159 3.10665 13.4472 3.03795C13.3785 2.96925 13.2854 2.93066 13.1882 2.93066H12.0892V1.83166C12.0892 1.73451 12.0506 1.64133 11.9819 1.57263C11.9132 1.50393 11.82 1.46533 11.7229 1.46533H10.2575C10.1604 1.46533 10.0672 1.50393 9.99851 1.57263C9.92981 1.64133 9.89122 1.73451 9.89122 1.83166V2.93066H8.79223C8.69507 2.93066 8.60189 2.96925 8.53319 3.03795C8.46449 3.10665 8.42589 3.19983 8.42589 3.29699V4.76231C8.42589 4.85947 8.46449 4.95265 8.53319 5.02135C8.60189 5.09005 8.69507 5.12864 8.79223 5.12864ZM9.15856 3.66332H10.2575C10.3547 3.66332 10.4479 3.62472 10.5166 3.55602C10.5853 3.48732 10.6239 3.39415 10.6239 3.29699V2.19799H11.3565V3.29699C11.3565 3.39415 11.3951 3.48732 11.4638 3.55602C11.5325 3.62472 11.6257 3.66332 11.7229 3.66332H12.8219V4.39598H11.7229C11.6257 4.39598 11.5325 4.43458 11.4638 4.50328C11.3951 4.57198 11.3565 4.66516 11.3565 4.76231V5.86131H10.6239V4.76231C10.6239 4.66516 10.5853 4.57198 10.5166 4.50328C10.4479 4.43458 10.3547 4.39598 10.2575 4.39598H9.15856V3.66332ZM5.12891 6.59397C4.76665 6.59397 4.41251 6.70139 4.1113 6.90266C3.81009 7.10392 3.57532 7.38999 3.43668 7.72468C3.29805 8.05937 3.26178 8.42766 3.33245 8.78296C3.40313 9.13827 3.57758 9.46464 3.83374 9.7208C4.0899 9.97696 4.41627 10.1514 4.77158 10.2221C5.12688 10.2928 5.49517 10.2565 5.82986 10.1179C6.16455 9.97922 6.45061 9.74445 6.65188 9.44324C6.85314 9.14202 6.96057 8.78789 6.96057 8.42562C6.96057 7.93984 6.76759 7.47395 6.42409 7.13045C6.08059 6.78695 5.6147 6.59397 5.12891 6.59397ZM5.12891 9.52462C4.91155 9.52462 4.69907 9.46016 4.51835 9.3394C4.33762 9.21865 4.19676 9.04701 4.11358 8.84619C4.0304 8.64538 4.00863 8.42441 4.05104 8.21122C4.09344 7.99804 4.19811 7.80222 4.35181 7.64852C4.5055 7.49482 4.70133 7.39015 4.91451 7.34775C5.12769 7.30534 5.34867 7.32711 5.54948 7.41029C5.75029 7.49347 5.92193 7.63433 6.04269 7.81506C6.16345 7.99579 6.22791 8.20826 6.22791 8.42562C6.22791 8.7171 6.11212 8.99663 5.90602 9.20273C5.69992 9.40883 5.42038 9.52462 5.12891 9.52462Z" fill="white"/>
</svg>
