<svg width="21" height="25" viewBox="0 0 21 25" fill="none" xmlns="http://www.w3.org/2000/svg">
<path d="M10.3611 13.9313C7.14586 13.8265 6.37477 11.0737 6.20971 10.1849C5.90019 10.1132 5.6244 9.93802 5.42793 9.68832C5.20363 9.37925 5.09958 8.99906 5.13525 8.61885C5.10977 8.41399 5.12757 8.20606 5.1875 8.00851C5.24744 7.81096 5.34817 7.62818 5.48318 7.47201C5.55939 7.39389 5.64702 7.32778 5.74307 7.27594C5.14549 6.31117 4.85117 5.18927 4.89818 4.0554C5.27036 1.39597 7.41359 1.13715 8.08486 1.12218C8.3938 0.762844 8.78001 0.478032 9.21458 0.289058C10.0286 -0.0392984 10.9284 -0.08943 11.7738 0.146461C13.4358 0.580312 14.5441 1.41236 15.07 2.6198C15.8186 4.33595 15.1619 6.31128 14.7848 7.19823C14.9286 7.24497 15.0612 7.32108 15.1741 7.42175C15.3277 7.57769 15.4434 7.76682 15.5124 7.97455C15.5814 8.18228 15.6017 8.40307 15.5719 8.61992C15.6079 9.00011 15.504 9.38037 15.2796 9.68939C15.0829 9.93902 14.807 10.1142 14.4974 10.186C14.3324 11.0737 13.5631 13.8265 10.3611 13.9313ZM6.33876 7.84597C6.21233 7.84008 6.08865 7.88413 5.99439 7.96861C5.92914 8.06 5.88266 8.16342 5.85764 8.27289C5.83261 8.38236 5.82953 8.49571 5.84859 8.60637C5.85008 8.63016 5.84924 8.65404 5.84609 8.67767C5.82672 8.88229 5.87956 9.08723 5.99546 9.25697C6.06775 9.33772 6.15545 9.40322 6.25339 9.44962C6.35134 9.49603 6.45757 9.5224 6.56585 9.52719C6.64736 9.53682 6.72305 9.57429 6.78014 9.63326C6.83723 9.69224 6.87222 9.7691 6.87921 9.85088C6.89097 9.9835 7.20718 13.1153 10.3618 13.2187C13.4989 13.1153 13.8165 9.9835 13.8283 9.85017C13.8354 9.76852 13.8705 9.69182 13.9276 9.63299C13.9847 9.57416 14.0603 9.5368 14.1417 9.52719C14.2499 9.52244 14.3562 9.49608 14.4541 9.44968C14.5521 9.40327 14.6398 9.33775 14.712 9.25697C14.8285 9.08639 14.8813 8.88037 14.8614 8.67482C14.8584 8.65189 14.8576 8.62874 14.8589 8.60566C14.8782 8.49136 14.8739 8.37433 14.8462 8.26177C14.8186 8.14921 14.7682 8.0435 14.6981 7.95114C14.5868 7.86913 14.4482 7.8329 14.311 7.8499C14.245 7.8616 14.1771 7.85447 14.115 7.82934C14.0529 7.8042 13.9991 7.76207 13.9598 7.70777C13.9206 7.65348 13.8974 7.58922 13.893 7.52236C13.8886 7.4555 13.9031 7.38876 13.9349 7.32977C13.9481 7.30482 15.2539 4.82649 14.4147 2.90036C13.9802 1.90504 13.0315 1.21023 11.5945 0.835203C10.9038 0.639747 10.168 0.677335 9.50085 0.942151C9.1213 1.10568 8.79046 1.36455 8.54046 1.69364C8.50446 1.74259 8.45645 1.78144 8.40106 1.80641C8.34567 1.83139 8.28477 1.84166 8.22425 1.83623C8.13192 1.82875 5.94912 1.68758 5.60689 4.12776C5.26465 6.56795 5.50814 6.06886 6.63251 7.24529C6.68151 7.29651 6.71412 7.36118 6.72619 7.43103C6.73825 7.50087 6.72922 7.57274 6.70025 7.63743C6.67355 7.70378 6.62647 7.75993 6.56579 7.7978C6.50512 7.83567 6.43398 7.85328 6.36265 7.84811L6.33876 7.84597Z" fill="white"/>
<path d="M14.249 7.85452C14.157 7.8546 14.0685 7.81911 14.0021 7.75546C13.9356 7.69181 13.8964 7.60493 13.8925 7.513C13.8882 7.42067 13.7777 5.2671 12.1699 5.05998C11.4345 5.15337 10.6878 5.09515 9.97582 4.8889C9.2638 4.68264 8.60158 4.33274 8.02998 3.86074C7.57545 4.20262 6.52808 5.24179 6.7295 7.4581C6.73216 7.54882 6.70012 7.63714 6.63991 7.70505C6.57971 7.77296 6.49587 7.81535 6.40548 7.82358C6.3151 7.83181 6.22498 7.80526 6.1535 7.74934C6.08202 7.69341 6.03456 7.61234 6.02079 7.52263C5.72526 4.27107 7.81323 3.14241 7.902 3.09607C7.96808 3.06158 8.0433 3.04868 8.1171 3.05916C8.19089 3.06965 8.25954 3.103 8.31339 3.15453C8.82151 3.61476 9.42303 3.95982 10.0768 4.16612C10.7306 4.37242 11.4212 4.4351 12.1015 4.34985C12.1341 4.34457 12.1673 4.34337 12.2002 4.34629C14.0126 4.53487 14.5663 6.48203 14.6055 7.48342C14.6091 7.57774 14.5752 7.66967 14.5112 7.73905C14.4472 7.80842 14.3583 7.84956 14.264 7.85345L14.249 7.85452ZM20.3835 24.9551H0.356492C0.261945 24.9551 0.17127 24.9175 0.104414 24.8507C0.0375591 24.7838 0 24.6931 0 24.5986V20.6244C0.00254818 19.3683 0.503115 18.1645 1.39193 17.277C2.28075 16.3895 3.48526 15.8906 4.74134 15.8899H5.42581C5.52036 15.8899 5.61103 15.9274 5.67789 15.9943C5.74474 16.0611 5.7823 16.1518 5.7823 16.2463C5.7823 16.3409 5.74474 16.4316 5.67789 16.4984C5.61103 16.5653 5.52036 16.6028 5.42581 16.6028H4.74134C3.6743 16.6034 2.65103 17.0271 1.89588 17.7809C1.14073 18.5348 0.715343 19.5574 0.712984 20.6244V24.2421H20.027V20.6244C20.0258 19.5582 19.6017 18.536 18.8478 17.7821C18.0938 17.0282 17.0716 16.6041 16.0054 16.6028H15.2718C15.1772 16.6028 15.0865 16.5653 15.0197 16.4984C14.9528 16.4316 14.9153 16.3409 14.9153 16.2463C14.9153 16.1518 14.9528 16.0611 15.0197 15.9943C15.0865 15.9274 15.1772 15.8899 15.2718 15.8899H16.0054C17.2606 15.8916 18.4638 16.391 19.3513 17.2786C20.2388 18.1661 20.7382 19.3693 20.74 20.6244V24.5986C20.74 24.6931 20.7024 24.7838 20.6356 24.8507C20.5687 24.9175 20.478 24.9551 20.3835 24.9551Z" fill="white"/>
<path d="M11.5614 24.9551C11.5101 24.9551 11.4594 24.944 11.4127 24.9226C11.3661 24.9012 11.3246 24.87 11.2911 24.8311C11.2577 24.7923 11.233 24.7466 11.2188 24.6973C11.2046 24.648 11.2012 24.5962 11.2088 24.5455L12.6515 14.9975C12.6592 14.947 12.6776 14.8988 12.7055 14.856C12.7334 14.8132 12.7702 14.7769 12.8134 14.7496C12.8566 14.7223 12.9051 14.7046 12.9557 14.6977C13.0063 14.6907 13.0579 14.6948 13.1068 14.7095L15.5965 15.4599C15.6461 15.4749 15.6918 15.5004 15.7305 15.5349C15.7692 15.5693 15.7999 15.6117 15.8206 15.6592C15.8412 15.7067 15.8512 15.7581 15.85 15.8099C15.8487 15.8617 15.8362 15.9126 15.8133 15.959L14.8236 17.9447L15.3976 18.5888C15.4485 18.6463 15.4794 18.7187 15.4858 18.7952C15.4923 18.8717 15.4738 18.9483 15.4332 19.0134L11.8644 24.7861C11.8325 24.8377 11.7879 24.8804 11.7348 24.9099C11.6818 24.9395 11.6221 24.955 11.5614 24.9551ZM13.2954 15.5109L12.1742 22.9306L14.6885 18.8666L14.1313 18.2409C14.0839 18.1878 14.0535 18.1216 14.0441 18.051C14.0346 17.9804 14.0465 17.9086 14.0782 17.8448L14.9866 16.0217L13.2954 15.5109ZM9.1376 24.9551C9.07682 24.9551 9.01704 24.9396 8.96394 24.91C8.91084 24.8805 8.86619 24.8378 8.83422 24.7861L5.26431 19.0145C5.22374 18.9493 5.2053 18.8728 5.21173 18.7963C5.21815 18.7198 5.24909 18.6474 5.29996 18.5899L5.87391 17.9457L4.88429 15.9601C4.86137 15.9136 4.84884 15.8628 4.84758 15.811C4.84632 15.7592 4.85635 15.7078 4.87698 15.6603C4.89761 15.6128 4.92834 15.5703 4.96703 15.5359C5.00573 15.5015 5.05146 15.4759 5.10104 15.461L7.59078 14.7106C7.63967 14.6959 7.69115 14.6919 7.74172 14.6989C7.79229 14.7058 7.84078 14.7235 7.88391 14.7508C7.92704 14.7782 7.9638 14.8144 7.99171 14.8572C8.01961 14.8999 8.03801 14.9481 8.04566 14.9986L9.4891 24.5465C9.49656 24.5971 9.49306 24.6487 9.47884 24.6978C9.46461 24.7469 9.44 24.7923 9.40666 24.8311C9.37332 24.8698 9.33204 24.901 9.28562 24.9224C9.23919 24.9437 9.18871 24.9549 9.1376 24.9551ZM6.01045 18.8655L8.52479 22.9295L7.40362 15.5109L5.71242 16.0207L6.62041 17.8438C6.65218 17.9075 6.66413 17.9793 6.65473 18.0499C6.64532 18.1205 6.61499 18.1866 6.56764 18.2398L6.01045 18.8655Z" fill="white"/>
<path d="M10.3761 18.3083C9.60524 18.3077 8.83515 18.2611 8.06991 18.1686C8.02245 18.1642 7.97635 18.1504 7.93433 18.1279C7.8923 18.1054 7.85521 18.0748 7.82524 18.0377C7.79528 18.0007 7.77304 17.958 7.75986 17.9122C7.74667 17.8664 7.7428 17.8184 7.74847 17.7711C7.75415 17.7238 7.76925 17.6781 7.79289 17.6367C7.81652 17.5953 7.84822 17.5591 7.8861 17.5302C7.92397 17.5013 7.96726 17.4802 8.01341 17.4683C8.05955 17.4564 8.10762 17.4539 8.15475 17.4609C9.61172 17.6401 11.0851 17.6401 12.5421 17.4609C12.635 17.4509 12.7282 17.4777 12.8015 17.5357C12.8748 17.5936 12.9224 17.678 12.9341 17.7708C12.9458 17.8635 12.9206 17.9571 12.864 18.0314C12.8073 18.1058 12.7237 18.1549 12.6312 18.1682C11.8832 18.2621 11.13 18.3089 10.3761 18.3083ZM13.0048 15.4072C12.9493 15.407 12.8947 15.3938 12.8451 15.3687C12.7956 15.3437 12.7527 15.3074 12.7196 15.2628C12.1899 14.5466 12.094 13.127 12.0851 12.9677C12.0796 12.8733 12.1119 12.7807 12.1747 12.7101C12.2375 12.6395 12.3258 12.5967 12.4202 12.5912C12.5143 12.5868 12.6064 12.6194 12.6767 12.682C12.7471 12.7447 12.7901 12.8324 12.7966 12.9263C12.8184 13.3014 12.9503 14.3762 13.2925 14.8389C13.3316 14.8919 13.3553 14.9546 13.3609 15.0203C13.3665 15.0859 13.3539 15.1517 13.3243 15.2106C13.2948 15.2694 13.2496 15.3189 13.1936 15.3536C13.1376 15.3883 13.0732 15.4069 13.0073 15.4072H13.0048ZM7.69417 15.4072C7.62832 15.4069 7.56385 15.3883 7.50789 15.3536C7.45193 15.3189 7.40667 15.2694 7.37714 15.2106C7.34761 15.1517 7.33495 15.0859 7.34056 15.0203C7.34618 14.9546 7.36986 14.8919 7.40897 14.8389C7.75192 14.3755 7.88346 13.301 7.90521 12.9263C7.90793 12.8795 7.91984 12.8337 7.94026 12.7915C7.96068 12.7493 7.98922 12.7115 8.02424 12.6803C8.05927 12.6491 8.10009 12.6252 8.14438 12.6097C8.18867 12.5943 8.23556 12.5878 8.28238 12.5905C8.32919 12.5932 8.37502 12.6051 8.41723 12.6256C8.45944 12.646 8.49722 12.6745 8.5284 12.7096C8.55958 12.7446 8.58356 12.7854 8.59897 12.8297C8.61438 12.874 8.62091 12.9209 8.61819 12.9677C8.60928 13.127 8.51125 14.5466 7.98364 15.2628C7.95019 15.308 7.90653 15.3446 7.85622 15.3697C7.80591 15.3948 7.75038 15.4076 7.69417 15.4072ZM17.5551 19.9585C17.4623 19.9585 17.3732 19.9224 17.3066 19.8578C17.24 19.7931 17.2013 19.7051 17.1986 19.6123C17.1319 17.2909 16.2493 16.5604 16.2407 16.5533C16.167 16.4948 16.1193 16.4097 16.1077 16.3164C16.0961 16.2231 16.1216 16.1289 16.1787 16.0542C16.2354 15.9801 16.319 15.9313 16.4115 15.9185C16.5039 15.9057 16.5977 15.9298 16.6724 15.9857C16.7195 16.0214 17.8335 16.8866 17.9116 19.5917C17.9143 19.6861 17.8794 19.7777 17.8145 19.8465C17.7497 19.9152 17.6602 19.9553 17.5658 19.9581L17.5551 19.9585Z" fill="white"/>
<path d="M17.5569 22.0632C17.2782 22.0633 17.0057 21.9807 16.7739 21.8259C16.5421 21.6711 16.3614 21.451 16.2547 21.1935C16.148 20.936 16.12 20.6527 16.1744 20.3793C16.2287 20.1059 16.3629 19.8548 16.5599 19.6577C16.757 19.4605 17.0081 19.3263 17.2815 19.2719C17.5549 19.2175 17.8382 19.2454 18.0957 19.352C18.3533 19.4587 18.5734 19.6393 18.7282 19.871C18.8831 20.1028 18.9657 20.3753 18.9657 20.654C18.9654 21.0276 18.8168 21.3857 18.5527 21.6499C18.2886 21.9141 17.9305 22.0627 17.5569 22.0632ZM17.5569 19.9578C17.4192 19.9577 17.2845 19.9985 17.17 20.0749C17.0555 20.1514 16.9662 20.2601 16.9134 20.3873C16.8607 20.5145 16.8468 20.6545 16.8736 20.7896C16.9005 20.9247 16.9667 21.0488 17.0641 21.1462C17.1615 21.2436 17.2855 21.3099 17.4206 21.3368C17.5556 21.3637 17.6957 21.35 17.8229 21.2973C17.9501 21.2446 18.0589 21.1553 18.1354 21.0408C18.2119 20.9263 18.2528 20.7917 18.2528 20.654C18.2526 20.4695 18.1792 20.2925 18.0488 20.162C17.9183 20.0315 17.7414 19.9581 17.5569 19.9578ZM2.91292 19.9585C2.8226 19.9587 2.73556 19.9246 2.66938 19.8632C2.60321 19.8017 2.56284 19.7174 2.55643 19.6273C2.36214 16.8912 3.86974 16.0168 3.93391 15.9807C4.01626 15.9343 4.1137 15.9224 4.20479 15.9478C4.29588 15.9732 4.37316 16.0337 4.41963 16.116C4.4661 16.1984 4.47795 16.2958 4.45258 16.3869C4.42721 16.478 4.36669 16.5553 4.28434 16.6018C4.23016 16.6338 3.10792 17.3265 3.26727 19.577C3.27394 19.6714 3.24286 19.7644 3.18089 19.8358C3.11891 19.9072 3.03111 19.9511 2.9368 19.9578L2.91292 19.9585Z" fill="white"/>
<path d="M2.19172 22.8129C2.13656 22.8132 2.08209 22.8006 2.0326 22.7762C1.98311 22.7519 1.93996 22.7163 1.90653 22.6725C1.73251 22.4439 1.60431 22.1839 1.529 21.9067C1.36351 21.3668 1.41781 20.7834 1.68008 20.2833C1.94235 19.7831 2.39141 19.4068 2.92966 19.2359C3.18496 19.1641 3.45201 19.1439 3.7152 19.1765C3.9784 19.209 4.23247 19.2937 4.46257 19.4255C4.86584 19.6585 5.1884 20.009 5.38715 20.4302C5.5859 20.8514 5.65138 21.3233 5.57483 21.7827C5.55932 21.8759 5.5074 21.9592 5.43048 22.0142C5.35357 22.0692 5.25796 22.0914 5.16469 22.0759C5.07141 22.0604 4.98812 22.0085 4.93313 21.9315C4.87815 21.8546 4.85596 21.759 4.87147 21.6657C4.92379 21.351 4.87935 21.0277 4.74403 20.7387C4.6087 20.4497 4.38886 20.2086 4.11357 20.0473C3.96513 19.9616 3.8011 19.9063 3.63107 19.8847C3.46103 19.8631 3.28839 19.8756 3.12323 19.9214C2.76602 20.0409 2.47031 20.2964 2.30027 20.6325C2.13022 20.9686 2.09954 21.3581 2.21489 21.7167C2.26648 21.9065 2.35437 22.0844 2.47371 22.2408C2.51385 22.2936 2.53845 22.3566 2.54474 22.4226C2.55103 22.4887 2.53876 22.5552 2.50931 22.6147C2.47985 22.6741 2.43439 22.7242 2.37803 22.7592C2.32167 22.7942 2.25665 22.8128 2.19029 22.8129H2.19172Z" fill="white"/>
<path d="M5.22794 22.0814C5.21404 22.0814 5.19978 22.0814 5.18552 22.0793L4.78375 22.0319C4.73724 22.0263 4.69227 22.0117 4.65142 21.9888C4.61056 21.9659 4.57461 21.9352 4.54563 21.8984C4.51665 21.8616 4.4952 21.8194 4.4825 21.7744C4.46981 21.7293 4.46612 21.6821 4.47164 21.6356C4.47717 21.5891 4.4918 21.5441 4.5147 21.5033C4.5376 21.4624 4.56833 21.4265 4.60512 21.3975C4.67943 21.339 4.77395 21.3123 4.86788 21.3235L5.26965 21.3713C5.35988 21.382 5.4426 21.4268 5.50092 21.4965C5.55924 21.5661 5.58875 21.6555 5.58342 21.7462C5.5781 21.8369 5.53834 21.9221 5.47227 21.9845C5.4062 22.0469 5.3188 22.0813 5.22794 22.0814ZM2.1917 22.8161C2.10799 22.8163 2.02692 22.7869 1.96268 22.7333C1.89844 22.6796 1.85512 22.605 1.84033 22.5227C1.82554 22.4403 1.8402 22.3553 1.88176 22.2826C1.92332 22.21 1.98912 22.1543 2.06764 22.1253L2.49543 21.9673C2.53932 21.9509 2.586 21.9434 2.63282 21.945C2.67964 21.9467 2.72568 21.9575 2.7683 21.977C2.81092 21.9964 2.84929 22.0241 2.88122 22.0584C2.91316 22.0926 2.93803 22.1329 2.95441 22.1768C2.9708 22.2207 2.97838 22.2673 2.97672 22.3142C2.97506 22.361 2.9642 22.407 2.94475 22.4496C2.9253 22.4923 2.89765 22.5306 2.86337 22.5626C2.82909 22.5945 2.78886 22.6194 2.74497 22.6358L2.31718 22.794C2.27702 22.8089 2.23451 22.8164 2.1917 22.8161Z" fill="white"/>
</svg>
