<svg width="15" height="13" viewBox="0 0 15 13" fill="none" xmlns="http://www.w3.org/2000/svg">
<path d="M6.01053 9.40543H6.81139C6.86814 9.40543 6.92258 9.42797 6.96271 9.46811C7.00284 9.50824 7.02539 9.56267 7.02539 9.61943C7.02539 9.67619 7.00284 9.73062 6.96271 9.77075C6.92258 9.81088 6.86814 9.83343 6.81139 9.83343H6.01053C5.95377 9.83343 5.89934 9.81088 5.85921 9.77075C5.81907 9.73062 5.79653 9.67619 5.79653 9.61943C5.79653 9.56267 5.81907 9.50824 5.85921 9.46811C5.89934 9.42797 5.95377 9.40543 6.01053 9.40543Z" fill="#8D8585"/>
<path d="M1.29667 7.11437L2.46202 6.66487L3.05618 6.07071C3.09292 6.03395 3.14184 6.01189 3.19371 6.00868V5.5359C2.90585 5.22922 2.71162 4.84665 2.63391 4.43327C2.58397 4.43552 2.53355 4.4315 2.48382 4.42134C2.19908 4.36305 1.99241 4.09885 1.99241 3.7932V3.63715C1.99227 3.5526 2.00885 3.46886 2.04119 3.39074C2.07354 3.31263 2.12101 3.24168 2.18087 3.18198C1.99189 2.15419 2.14755 1.3166 2.63302 0.755999C3.1026 0.21377 3.85915 -0.0454032 4.82077 0.00661404C5.7092 0.0546365 6.28273 0.463412 6.46443 0.612958C6.5639 0.624771 6.73334 0.659697 6.90482 0.76259C7.14251 0.905202 7.42582 1.20478 7.42582 1.82205C7.42582 2.36054 7.33977 2.81012 7.27745 3.06519C7.48632 3.16694 7.62605 3.38745 7.62605 3.63954V3.79317C7.62605 4.09882 7.41938 4.36302 7.13464 4.42132C7.0849 4.4315 7.03445 4.4355 6.98455 4.43324C6.90682 4.84662 6.7126 5.22918 6.42474 5.53588V6.00865C6.47662 6.01186 6.52554 6.03392 6.56228 6.07069L7.15644 6.66485L8.32179 7.11434C8.42258 7.1532 8.51861 7.20346 8.60798 7.26414C8.65437 7.29627 8.68618 7.34541 8.69652 7.40088C8.70685 7.45635 8.69485 7.51366 8.66315 7.56033C8.63144 7.607 8.58258 7.63926 8.52721 7.65009C8.47184 7.66092 8.41443 7.64945 8.36747 7.61816C8.3051 7.57583 8.23809 7.54077 8.16776 7.51364L7.08624 7.09648L6.25933 8.33687C6.20902 8.41262 6.14247 8.47621 6.06451 8.52302C5.98655 8.56983 5.89915 8.59868 5.80864 8.60749C5.68281 8.62005 5.55618 8.59325 5.44623 8.53079L5.62368 12.556C5.62496 12.5849 5.62036 12.6137 5.61018 12.6408C5.6 12.6678 5.58444 12.6926 5.56444 12.7134C5.54445 12.7343 5.52042 12.7509 5.49383 12.7623C5.46724 12.7736 5.43862 12.7794 5.40971 12.7794C5.35461 12.7794 5.30165 12.7581 5.26186 12.72C5.22206 12.6819 5.1985 12.6299 5.19608 12.5748L5.03138 8.83858H4.58711L4.42241 12.5748C4.42117 12.6029 4.41442 12.6305 4.40253 12.6559C4.39065 12.6814 4.37386 12.7043 4.35313 12.7233C4.3324 12.7422 4.30814 12.757 4.28173 12.7666C4.25531 12.7762 4.22727 12.7805 4.19919 12.7792C4.17111 12.778 4.14355 12.7712 4.11808 12.7593C4.09262 12.7475 4.06974 12.7307 4.05076 12.7099C4.03178 12.6892 4.01707 12.665 4.00747 12.6385C3.99787 12.6121 3.99356 12.5841 3.9948 12.556L4.17225 8.53079C4.0623 8.59326 3.93567 8.62006 3.80984 8.60749C3.71934 8.59868 3.63193 8.56982 3.55397 8.52301C3.47602 8.4762 3.40946 8.41262 3.35915 8.33687L2.53224 7.09648L1.45072 7.51364C1.30268 7.57076 1.17063 7.66279 1.0658 7.78192L1.80571 8.52183C2.07305 8.78916 2.22025 9.14458 2.22025 9.5226V12.5654C2.22025 12.6222 2.1977 12.6766 2.15757 12.7168C2.11744 12.7569 2.063 12.7795 2.00625 12.7795C1.94949 12.7795 1.89506 12.7569 1.85492 12.7168C1.81479 12.6766 1.79224 12.6222 1.79224 12.5654V9.5226C1.79224 9.25892 1.68955 9.01096 1.50308 8.82449L0.853708 8.17511C0.827085 8.27248 0.815566 8.37335 0.819553 8.47421L0.985306 12.5568C0.986475 12.5856 0.981806 12.6144 0.971578 12.6413C0.96135 12.6683 0.945775 12.6929 0.925788 12.7137C0.905802 12.7345 0.881817 12.7511 0.855274 12.7624C0.828731 12.7737 0.800178 12.7795 0.771331 12.7795C0.716109 12.7794 0.663041 12.758 0.623221 12.7198C0.583403 12.6815 0.559915 12.6294 0.557669 12.5742L0.391859 8.4915C0.367577 7.8859 0.731184 7.33248 1.29667 7.11437ZM6.56561 4.34502C6.60336 4.13954 6.79363 3.9902 6.99899 4.00541C7.01566 4.00655 7.03241 4.0054 7.04878 4.00201C7.13387 3.9846 7.19804 3.89481 7.19804 3.7932V3.63952C7.19804 3.54025 7.1317 3.45082 7.04704 3.43596C6.97559 3.4234 6.90716 3.44962 6.86388 3.50609C6.82459 3.55731 6.77217 3.59395 6.71234 3.61198C6.62468 3.63846 6.52804 3.62291 6.45373 3.57046C6.31932 3.47542 6.20086 3.35961 6.1028 3.22737C6.06934 3.1818 6.05527 3.12484 6.06366 3.06894C6.07206 3.01303 6.10224 2.96271 6.1476 2.92898C6.19297 2.89525 6.24984 2.88084 6.3058 2.8889C6.36176 2.89696 6.41225 2.92683 6.44626 2.97199C6.49514 3.03786 6.55101 3.09824 6.6129 3.15207C6.68036 3.09444 6.75954 3.05215 6.84496 3.02815C6.89995 2.81751 6.99782 2.36625 6.99782 1.82199C6.99782 1.49423 6.89678 1.26393 6.69753 1.13752C6.54205 1.03888 6.37749 1.03495 6.37761 1.03492C6.32266 1.0347 6.26986 1.01356 6.22994 0.975795C6.22472 0.970887 5.69864 0.482673 4.79771 0.433966C3.97303 0.389453 3.33638 0.597636 2.95662 1.03614C2.57387 1.47813 2.44641 2.1567 2.58469 3.00601C2.64201 3.00398 2.70476 3.00832 2.76722 3.01873L2.96827 2.53588C2.98815 2.48824 3.02456 2.44939 3.07081 2.42646C3.11706 2.40353 3.17004 2.39808 3.21999 2.41111C3.23988 2.4163 5.21616 2.9173 6.04482 1.88563C6.06231 1.8634 6.08403 1.84487 6.10873 1.83109C6.13343 1.81731 6.16061 1.80857 6.18871 1.80536C6.21681 1.80216 6.24527 1.80455 6.27243 1.81241C6.2996 1.82027 6.32494 1.83343 6.34699 1.85114C6.36904 1.86885 6.38736 1.89076 6.40089 1.91559C6.41442 1.94043 6.4229 1.96769 6.42583 1.99582C6.42876 2.02395 6.42608 2.05238 6.41796 2.07947C6.40983 2.10656 6.39642 2.13177 6.37849 2.15364C5.53229 3.20717 3.85324 2.97799 3.29432 2.86622L3.13884 3.23959C3.07199 3.40009 2.90095 3.48774 2.73238 3.448C2.66318 3.4317 2.59707 3.43133 2.57224 3.43624C2.4857 3.45348 2.42044 3.53979 2.42044 3.63709V3.79317C2.42044 3.89481 2.48462 3.98458 2.56971 4.00198C2.58607 4.0054 2.60282 4.00654 2.6195 4.00538C2.82483 3.99043 3.01509 4.13949 3.05287 4.34502C3.20855 5.19258 3.94721 5.80778 4.80924 5.80778C5.67128 5.80778 6.40993 5.19258 6.56561 4.34502ZM5.61626 8.12792C5.67054 8.18219 5.73362 8.18484 5.76644 8.18159C5.79922 8.17837 5.8606 8.16336 5.90317 8.0995L6.73622 6.84995L6.4012 6.51493L5.12232 7.63397L5.61626 8.12792ZM5.01252 8.4106L4.99956 8.11648L4.80927 7.92618L4.61898 8.11648L4.60602 8.4106H5.01252ZM4.80924 7.33916L5.99674 6.3001V5.89052C5.65148 6.11009 5.24299 6.23578 4.80924 6.23578C4.3755 6.23578 3.96698 6.11009 3.62172 5.89052V6.3001L4.80924 7.33916ZM3.71525 8.0995C3.75785 8.16339 3.81923 8.17837 3.85199 8.18159C3.88483 8.18484 3.94792 8.18219 4.00219 8.12789L4.49614 7.63394L3.21725 6.5149L2.88224 6.84992L3.71525 8.0995Z" fill="#8D8585"/>
<path d="M8.21338 8.2359L9.25834 7.77978L9.82956 7.20856C9.86629 7.17178 9.91521 7.14971 9.96709 7.14653V6.80986C9.47891 6.48905 9.12167 5.97884 9.00687 5.37087C8.9501 5.37334 8.89326 5.36792 8.83798 5.35478C8.56414 5.28998 8.3654 5.02755 8.3654 4.7308V4.57478C8.3654 4.35798 8.47298 4.16295 8.63964 4.04853C8.59057 3.85472 8.56571 3.65557 8.56563 3.45565C8.56563 2.56905 9.04488 1.78813 9.76727 1.33975C9.77498 0.599782 10.4066 0 11.1822 0C11.9578 0 12.5894 0.599782 12.5971 1.33975C13.3195 1.78813 13.7988 2.56907 13.7988 3.45565C13.7988 3.65504 13.7739 3.85315 13.7252 4.04681C13.8918 4.16066 13.999 4.35661 13.999 4.57712V4.7308C13.999 5.02755 13.8002 5.28998 13.5264 5.35478C13.4705 5.36802 13.4138 5.37338 13.3575 5.37087C13.2427 5.97884 12.8855 6.48905 12.3973 6.80986V7.14653C12.4491 7.14971 12.4981 7.17178 12.5348 7.20856L13.106 7.77978L14.151 8.2359C14.6826 8.46799 15.0233 9.01333 14.9988 9.59294L14.8724 12.5745C14.8692 12.6307 14.844 12.6833 14.8024 12.721C14.7607 12.7588 14.7058 12.7786 14.6496 12.7762C14.5934 12.7739 14.5405 12.7495 14.5021 12.7083C14.4638 12.6672 14.4432 12.6126 14.4447 12.5564L14.5711 9.57479C14.5793 9.38267 14.5293 9.19626 14.4355 9.03582L13.8738 9.70984C13.6961 9.92335 13.5987 10.1923 13.5985 10.4701V12.5655C13.5985 12.6222 13.576 12.6767 13.5359 12.7168C13.4957 12.7569 13.4413 12.7795 13.3845 12.7795C13.3278 12.7795 13.2733 12.7569 13.2332 12.7168C13.1931 12.6767 13.1705 12.6222 13.1705 12.5655V10.4701C13.1708 10.0922 13.3033 9.72632 13.545 9.43586L14.1421 8.71929C14.091 8.68378 14.0366 8.65326 13.9797 8.62815L13.069 8.23062L12.4255 9.27521C12.3884 9.33548 12.3365 9.38523 12.2747 9.41971C12.213 9.4542 12.1434 9.47227 12.0726 9.47218C11.9748 9.47218 11.8795 9.43752 11.8039 9.37303L11.3961 9.02506V12.5655C11.3961 12.6222 11.3736 12.6766 11.3334 12.7168C11.2933 12.7569 11.2389 12.7795 11.1821 12.7795C11.1254 12.7795 11.0709 12.7569 11.0308 12.7168C10.9907 12.6766 10.9681 12.6222 10.9681 12.5655V9.02512L10.5603 9.37309C10.5149 9.41192 10.4616 9.44045 10.404 9.45669C10.3465 9.47294 10.2861 9.47652 10.2271 9.46719C10.168 9.45793 10.1116 9.43598 10.0619 9.40285C10.0121 9.36972 9.97012 9.32619 9.93879 9.27527L9.29524 8.23065L8.38455 8.62818C8.32763 8.65329 8.27325 8.68381 8.22216 8.71932L8.81929 9.43589C9.06101 9.72634 9.19348 10.0922 9.19374 10.4701V12.5655C9.19374 12.6223 9.1712 12.6767 9.13106 12.7168C9.09093 12.757 9.0365 12.7795 8.97974 12.7795C8.92298 12.7795 8.86855 12.757 8.82841 12.7168C8.78828 12.6767 8.76573 12.6223 8.76573 12.5655V10.4701C8.76554 10.1923 8.66817 9.92339 8.4905 9.70987L7.92881 9.03584C7.83493 9.19629 7.785 9.3827 7.79313 9.57482L7.91951 12.5564C7.9207 12.5845 7.91634 12.6126 7.9067 12.639C7.89705 12.6653 7.8823 12.6896 7.86329 12.7103C7.84427 12.731 7.82137 12.7477 7.79588 12.7596C7.7704 12.7714 7.74283 12.7781 7.71475 12.7793C7.65804 12.7817 7.6027 12.7615 7.5609 12.7231C7.5191 12.6847 7.49427 12.6313 7.49187 12.5746L7.36549 9.59297C7.34095 9.01336 7.68168 8.46799 8.21338 8.2359ZM11.1822 0.428008C10.7269 0.428008 10.3427 0.718454 10.2291 1.11199C10.5246 1.00048 10.8461 0.939163 11.1822 0.939163C11.5183 0.939163 11.8397 1.00048 12.1352 1.11199C12.0216 0.718454 11.6375 0.428008 11.1822 0.428008ZM12.9386 5.28267C12.9763 5.07714 13.1669 4.92785 13.3719 4.94303C13.3907 4.9443 13.4095 4.94269 13.4278 4.93827C13.5094 4.91895 13.5709 4.82975 13.5709 4.7308V4.57712C13.5709 4.47785 13.5046 4.38842 13.4199 4.37356C13.3485 4.361 13.2801 4.38725 13.2368 4.44366C13.1976 4.49491 13.1451 4.53155 13.0852 4.54964C12.9976 4.57612 12.9009 4.56057 12.8267 4.50809C12.6943 4.41453 12.5775 4.30083 12.4803 4.17111C12.4467 4.12569 12.4324 4.06883 12.4406 4.01294C12.4488 3.95705 12.4787 3.90665 12.5239 3.87273C12.569 3.83881 12.6258 3.82413 12.6817 3.83189C12.7377 3.83964 12.7883 3.86921 12.8226 3.91413C12.8706 3.97826 12.9254 4.03711 12.9858 4.0897C13.0772 4.01169 13.1895 3.96224 13.3088 3.94752C13.3498 3.78679 13.3706 3.62156 13.3708 3.45568C13.3708 2.30411 12.389 1.3672 11.1822 1.3672C9.97537 1.3672 8.99358 2.30408 8.99358 3.45568C8.99358 3.62117 9.01443 3.78567 9.0553 3.94657C9.11162 3.95105 9.16886 3.96027 9.22185 3.97402L9.38272 3.84174C9.46356 3.77526 9.56531 3.74199 9.66829 3.74812C9.98285 3.7667 11.5938 3.80924 12.4203 2.82009C12.4569 2.77704 12.5089 2.75019 12.5652 2.74538C12.6215 2.74056 12.6773 2.75818 12.7207 2.79438C12.764 2.83059 12.7913 2.88245 12.7965 2.93867C12.8018 2.99489 12.7846 3.05091 12.7487 3.09453C12.3411 3.58237 11.7432 3.91225 10.9718 4.07501C10.3811 4.19961 9.85601 4.18751 9.65028 4.17579L9.3993 4.38217C9.36563 4.40994 9.32425 4.42672 9.28075 4.43026C9.23725 4.4338 9.19371 4.42393 9.15599 4.40197C9.1197 4.3822 8.99814 4.36331 8.9451 4.3739C8.85855 4.3911 8.79333 4.47745 8.79333 4.57478V4.7308C8.79333 4.82978 8.85487 4.91898 8.93648 4.93827C8.95476 4.94271 8.97361 4.94431 8.99238 4.94301C9.19731 4.92811 9.388 5.07714 9.42575 5.28264C9.58143 6.13024 10.3201 6.74543 11.1821 6.74543C12.0442 6.74543 12.7829 6.13024 12.9386 5.28267ZM12.0695 9.03704L12.7132 7.99225L12.3835 7.66251L11.4973 8.54871L12.0695 9.03704ZM11.1822 8.2585L11.9692 7.47142V7.02869C11.7179 7.12446 11.4511 7.17352 11.1822 7.17344C10.9132 7.17351 10.6464 7.12447 10.3951 7.02872V7.47142L11.1822 8.2585ZM10.2948 9.03704L10.8671 8.54871L9.98085 7.66251L9.65111 7.99225L10.2948 9.03704Z" fill="#8D8585"/>
<path d="M11.983 10.3493H12.5837C12.6404 10.3493 12.6949 10.3719 12.735 10.412C12.7751 10.4521 12.7977 10.5066 12.7977 10.5633C12.7977 10.6201 12.7751 10.6745 12.735 10.7146C12.6949 10.7548 12.6404 10.7773 12.5837 10.7773H11.983C11.9263 10.7773 11.8718 10.7548 11.8317 10.7146C11.7916 10.6745 11.769 10.6201 11.769 10.5633C11.769 10.5066 11.7916 10.4521 11.8317 10.412C11.8718 10.3719 11.9263 10.3493 11.983 10.3493Z" fill="#8D8585"/>
</svg>
