<svg width="40" height="34" viewBox="0 0 40 34" fill="none" xmlns="http://www.w3.org/2000/svg">
<path d="M36.6657 4.99995H28.3326V3.33327C28.3326 1.49496 26.8377 0 24.9993 0H14.9996C13.1613 0 11.6663 1.49488 11.6663 3.33327V4.99987H3.33327C1.49488 4.99995 3.465e-08 6.49483 3.465e-08 8.33314V13.333C3.465e-08 15.1714 1.49488 16.6663 3.33327 16.6663H16.6663V15.8329C16.6662 15.7235 16.6877 15.6151 16.7296 15.514C16.7714 15.4128 16.8328 15.3209 16.9102 15.2435C16.9876 15.1661 17.0795 15.1047 17.1806 15.0629C17.2818 15.021 17.3902 14.9995 17.4996 14.9996H22.4995C22.6089 14.9995 22.7173 15.021 22.8185 15.0629C22.9196 15.1047 23.0115 15.1661 23.0889 15.2435C23.1663 15.3209 23.2277 15.4128 23.2695 15.514C23.3114 15.6151 23.3329 15.7235 23.3328 15.8329V16.6663H36.6658C38.5041 16.6663 39.9989 15.1714 39.9989 13.333V8.33314C39.9989 6.49483 38.5041 4.99995 36.6657 4.99995ZM24.9993 4.99995H14.9996V3.33327H24.9993V4.99995ZM39.5367 17.5655C39.3978 17.4966 39.2424 17.4678 39.088 17.4823C38.9336 17.4968 38.7863 17.5541 38.6627 17.6477C38.0702 18.0961 37.3801 18.3329 36.6656 18.3329H23.3327V20.8328C23.3328 20.9423 23.3113 21.0507 23.2695 21.1518C23.2276 21.2529 23.1662 21.3448 23.0888 21.4222C23.0114 21.4996 22.9195 21.561 22.8184 21.6029C22.7173 21.6447 22.6089 21.6662 22.4994 21.6661H17.4995C17.3901 21.6662 17.2817 21.6447 17.1805 21.6029C17.0794 21.561 16.9875 21.4996 16.9101 21.4222C16.8327 21.3448 16.7713 21.2529 16.7295 21.1518C16.6876 21.0507 16.6661 20.9423 16.6662 20.8328V18.3329H3.33327C2.61876 18.3329 1.9287 18.0961 1.33621 17.6477C1.2129 17.5534 1.06555 17.4956 0.910991 17.4811C0.756435 17.4666 0.600907 17.4958 0.462175 17.5655C0.32332 17.6345 0.206493 17.741 0.124842 17.8728C0.0431911 18.0047 -4.46813e-05 18.1567 3.465e-08 18.3118L3.465e-08 29.9993C3.465e-08 31.8376 1.49488 33.3326 3.33327 33.3326H36.6658C38.5041 33.3326 39.999 31.8377 39.999 29.9993V18.3118C39.999 18.1567 39.9558 18.0047 39.8741 17.8728C39.7924 17.741 39.6756 17.6345 39.5367 17.5655Z" fill="#151718"/>
</svg>
